{"glyphs":{"0":{"ha":789,"x_min":25,"x_max":764,"o":"m 123 130 q 74 204 123 130 q 25 525 25 278 q 123 919 25 772 q 394 1067 221 1067 q 666 919 568 1067 q 764 525 764 772 q 666 130 764 278 q 394 -18 568 -18 q 123 130 221 -18 m 303 525 q 394 226 303 226 q 486 525 486 226 q 394 822 486 822 q 303 525 303 822 z "},"1":{"ha":471,"x_min":8,"x_max":404,"o":"m 8 801 l 8 1047 l 404 1047 l 404 0 l 121 0 l 121 801 l 8 801 z "},"2":{"ha":740,"x_min":-29,"x_max":706,"o":"m -29 0 l 257 382 q 393 590 357 517 q 429 740 429 663 q 412 808 429 783 q 363 833 394 833 q 296 706 296 833 q 297 667 296 685 l 24 667 q 21 710 21 692 q 120 967 21 867 q 369 1067 219 1067 q 610 972 514 1067 q 706 724 706 876 q 642 487 706 599 q 431 232 579 375 q 692 240 557 240 l 692 0 l -29 0 z "},"3":{"ha":721,"x_min":0,"x_max":700,"o":"m 0 292 l 0 308 l 276 308 q 346 214 276 214 q 402 240 381 214 q 424 311 424 267 q 308 421 424 421 q 260 418 304 421 l 260 640 q 280 640 269 640 q 294 639 290 639 q 410 746 410 639 q 350 833 410 833 q 294 763 294 833 l 294 749 l 21 749 q 123 981 32 894 q 360 1067 214 1067 q 592 978 497 1067 q 686 761 686 889 q 560 542 686 617 q 700 299 700 460 q 601 71 700 160 q 344 -18 503 -18 q 96 67 192 -18 q 0 292 0 153 z "},"4":{"ha":790,"x_min":21,"x_max":774,"o":"m 21 213 l 21 433 l 338 1047 l 683 1047 l 683 438 l 774 438 l 774 213 l 683 213 l 683 0 l 401 0 l 401 213 l 21 213 m 254 438 l 414 438 l 414 633 q 421 753 414 651 q 379 664 399 701 l 254 438 z "},"5":{"ha":682,"x_min":-12,"x_max":672,"o":"m -12 63 l 21 311 q 244 239 143 239 q 350 272 310 239 q 390 356 390 304 q 346 443 390 413 q 222 474 301 474 q 38 436 136 474 l 119 1047 l 640 1047 l 640 801 l 342 801 l 319 683 q 367 686 361 686 q 583 592 493 686 q 672 361 672 499 q 558 91 672 200 q 275 -18 444 -18 q -12 63 126 -18 z "},"6":{"ha":749,"x_min":25,"x_max":732,"o":"m 25 360 q 193 864 25 542 l 289 1047 l 593 1047 l 425 750 q 374 667 399 703 q 474 696 431 696 q 657 598 582 696 q 732 361 732 500 q 631 89 732 196 q 367 -18 531 -18 q 119 87 214 -18 q 25 360 25 192 m 301 351 q 379 207 301 207 q 460 351 460 207 q 379 492 460 492 q 301 351 301 492 z "},"7":{"ha":697,"x_min":-33,"x_max":742,"o":"m -33 0 l 219 557 q 354 801 274 678 l -1 801 l -1 1047 l 742 1047 l 271 0 l -33 0 z "},"8":{"ha":747,"x_min":17,"x_max":731,"o":"m 17 297 q 194 546 17 472 q 76 635 114 585 q 38 768 38 685 q 133 981 38 894 q 374 1067 229 1067 q 615 981 518 1067 q 711 768 711 894 q 678 633 711 683 q 568 546 644 583 q 731 297 731 479 q 629 72 731 161 q 374 -18 528 -18 q 118 72 219 -18 q 17 297 17 161 m 323 405 q 314 390 323 405 q 304 328 304 375 q 323 252 304 281 q 374 224 342 224 q 424 252 406 224 q 443 328 443 281 q 424 405 443 375 q 374 435 406 435 q 323 405 342 435 m 317 750 q 374 658 317 658 q 433 750 433 658 q 374 840 433 840 q 317 750 317 840 z "},"9":{"ha":750,"x_min":18,"x_max":725,"o":"m 18 688 q 119 960 18 853 q 383 1067 219 1067 q 631 962 536 1067 q 725 689 725 857 q 557 185 725 507 l 461 1 l 157 1 l 325 299 q 376 382 351 346 q 276 353 319 353 q 93 451 168 353 q 18 688 18 549 m 290 697 q 371 557 290 557 q 449 697 449 557 q 371 842 449 842 q 290 697 290 842 z "},"\u0000":{"ha":0,"x_min":0,"x_max":0,"o":""},"\r":{"ha":0,"x_min":0,"x_max":0,"o":""}," ":{"ha":417,"x_min":0,"x_max":0,"o":""},"!":{"ha":368,"x_min":25,"x_max":343,"o":"m 72 28 q 48 52 72 28 q 25 140 25 75 q 72 253 25 206 q 183 300 118 300 q 296 253 249 300 q 343 140 343 206 q 296 28 343 75 q 183 -18 249 -18 q 72 28 118 -18 m 42 1047 l 326 1047 l 304 356 l 64 356 l 42 1047 z "},"\"":{"ha":538,"x_min":0,"x_max":538,"o":"m 0 1047 l 249 1047 l 211 615 l 36 615 l 0 1047 m 288 1047 l 538 1047 l 500 615 l 325 615 l 288 1047 z "},"#":{"ha":742,"x_min":39,"x_max":703,"o":"m 39 310 l 39 475 l 149 475 l 164 592 l 74 592 l 74 758 l 183 758 l 219 1047 l 390 1047 l 354 758 l 442 758 l 478 1047 l 649 1047 l 613 758 l 703 758 l 703 592 l 592 592 l 578 475 l 668 475 l 668 310 l 558 310 l 519 0 l 349 0 l 388 310 l 300 310 l 261 0 l 90 0 l 129 310 l 39 310 m 319 475 l 407 475 l 421 592 l 335 592 l 319 475 z "},"$":{"ha":635,"x_min":21,"x_max":571,"o":"m 21 710 q 75 903 21 829 q 221 1007 129 978 l 221 1067 l 374 1067 l 374 1022 q 542 969 454 1014 l 542 672 q 383 765 471 765 q 301 708 301 765 q 358 632 301 665 l 431 590 q 571 324 571 508 q 518 147 571 218 q 374 46 465 75 l 374 -18 l 221 -18 l 221 26 q 25 71 121 33 l 25 376 q 192 285 101 285 q 263 303 238 285 q 288 347 288 321 q 238 421 288 390 l 147 475 q 21 710 21 550 z "},"%":{"ha":1000,"x_min":0,"x_max":1000,"o":"m 63 622 q 31 657 63 622 q 0 807 0 693 q 63 992 0 921 q 228 1064 125 1064 q 393 992 331 1064 q 456 807 456 921 q 393 622 456 693 q 228 550 331 550 q 63 622 125 550 m 74 42 l 814 1090 l 926 1011 l 182 -36 l 74 42 m 183 807 q 228 704 183 704 q 272 807 272 704 q 228 908 272 908 q 183 807 183 908 m 607 55 q 576 91 607 55 q 544 240 544 126 q 607 426 544 354 q 772 497 669 497 q 938 426 875 497 q 1000 240 1000 354 q 938 55 1000 126 q 772 -17 875 -17 q 607 55 669 -17 m 728 240 q 772 138 728 138 q 817 240 817 138 q 772 342 817 342 q 728 240 728 342 z "},"&":{"ha":1164,"x_min":144,"x_max":1056,"o":"m 144 306 q 325 582 144 481 q 244 788 244 688 q 330 985 244 903 q 536 1067 415 1067 q 760 982 665 1067 q 854 783 854 897 q 675 511 854 625 l 778 376 q 876 496 814 415 l 1019 304 q 913 196 988 268 l 1056 0 l 750 0 l 710 57 q 476 -18 594 -18 q 242 76 340 -18 q 144 306 144 171 m 413 311 q 436 249 413 275 q 494 224 460 224 q 565 253 532 224 l 463 389 q 413 311 413 360 m 500 796 q 550 692 500 764 q 615 796 615 754 q 599 835 615 819 q 558 851 582 851 q 517 835 535 851 q 500 796 500 819 z "},"'":{"ha":418,"x_min":10,"x_max":415,"o":"m 10 543 l 138 1047 l 415 1047 l 232 543 l 10 543 z "},"(":{"ha":424,"x_min":17,"x_max":419,"o":"m 17 524 q 33 715 17 625 q 90 913 54 824 q 161 1047 126 1003 l 419 1047 q 303 815 346 961 q 261 524 261 669 q 305 226 261 371 q 419 0 349 82 l 140 0 q 54 228 92 82 q 17 524 17 374 z "},")":{"ha":428,"x_min":7,"x_max":411,"o":"m 7 0 q 122 226 78 82 q 165 524 165 371 q 123 815 165 669 q 7 1047 81 961 l 265 1047 q 336 913 300 1003 q 393 715 372 824 q 411 524 411 618 q 372 226 411 375 q 286 0 333 78 l 7 0 z "},"*":{"ha":690,"x_min":21,"x_max":669,"o":"m 21 728 l 90 944 l 242 882 l 231 1047 l 458 1047 l 447 882 l 597 944 l 669 728 l 508 688 l 615 564 l 439 429 l 344 574 l 250 429 l 74 564 l 179 688 l 21 728 z "},"+":{"ha":690,"x_min":0,"x_max":690,"o":"m 0 449 l 0 611 l 261 611 l 261 892 l 429 892 l 429 611 l 690 611 l 690 449 l 429 449 l 429 169 l 261 169 l 261 449 l 0 449 z "},",":{"ha":224,"x_min":4,"x_max":354,"o":"m 4 0 l 86 310 l 354 310 l 236 0 l 4 0 z "},"-":{"ha":374,"x_min":17,"x_max":357,"o":"m 17 419 l 17 628 l 357 628 l 357 419 l 17 419 z "},".":{"ha":167,"x_min":8,"x_max":325,"o":"m 55 28 q 32 52 55 28 q 8 140 8 75 q 55 252 8 206 q 167 299 101 299 q 278 252 232 299 q 325 140 325 206 q 278 28 325 75 q 167 -18 232 -18 q 55 28 101 -18 z "},"/":{"ha":542,"x_min":17,"x_max":525,"o":"m 17 0 l 357 1067 l 525 1047 l 182 -18 l 17 0 z "},":":{"ha":356,"x_min":19,"x_max":336,"o":"m 66 28 q 43 52 66 28 q 19 140 19 75 q 66 252 19 206 q 178 299 113 299 q 290 252 243 299 q 336 140 336 206 q 290 28 336 75 q 178 -18 243 -18 q 66 28 113 -18 m 66 478 q 43 502 66 478 q 19 590 19 525 q 66 702 19 656 q 178 749 113 749 q 290 702 243 749 q 336 590 336 656 q 290 478 336 525 q 178 432 243 432 q 66 478 113 432 z "},";":{"ha":404,"x_min":8,"x_max":388,"o":"m 8 0 l 90 310 l 358 310 l 240 0 l 8 0 m 117 478 q 94 502 117 478 q 71 590 71 525 q 117 702 71 656 q 229 749 164 749 q 341 702 294 749 q 388 590 388 656 q 341 478 388 525 q 229 432 294 432 q 117 478 164 432 z "},"<":{"ha":681,"x_min":0,"x_max":681,"o":"m 0 408 l 0 656 l 681 1032 l 681 736 l 314 531 l 678 324 l 678 31 l 0 408 z "},"=":{"ha":713,"x_min":0,"x_max":713,"o":"m 0 343 l 0 490 l 713 490 l 713 343 l 0 343 m 0 578 l 0 725 l 713 725 l 713 578 l 0 578 z "},">":{"ha":681,"x_min":0,"x_max":681,"o":"m 0 31 l 0 326 l 365 532 l 0 739 l 0 1032 l 681 656 l 681 407 l 0 31 z "},"?":{"ha":713,"x_min":19,"x_max":693,"o":"m 19 722 q 108 974 19 882 q 353 1067 196 1067 q 595 968 497 1067 q 693 731 693 869 q 642 549 693 622 q 492 450 590 476 l 492 342 l 222 342 l 222 599 q 265 596 264 596 q 413 725 413 596 q 351 833 413 833 q 293 722 293 833 l 19 722 m 248 28 q 225 52 248 28 q 201 140 201 75 q 248 252 201 206 q 360 299 294 299 q 472 252 425 299 q 518 140 518 206 q 472 28 518 75 q 360 -18 425 -18 q 248 28 294 -18 z "},"@":{"ha":1036,"x_min":21,"x_max":1015,"o":"m 21 501 q 176 905 21 747 q 557 1063 332 1063 q 887 934 758 1063 q 1015 596 1015 806 q 935 335 1015 435 q 733 235 856 235 q 613 289 658 235 q 475 232 547 232 q 332 306 390 232 q 274 501 274 381 q 344 725 274 635 q 515 815 414 815 q 608 788 568 815 l 611 804 l 761 804 l 719 485 q 717 431 717 443 q 749 388 717 388 q 818 444 786 388 q 850 592 850 501 q 766 819 850 736 q 557 903 682 903 q 297 792 407 903 q 186 507 186 681 q 276 242 186 343 q 558 142 365 142 q 771 167 672 142 l 772 4 q 574 -18 681 -18 q 314 24 424 -18 q 142 139 204 65 q 50 303 79 213 q 21 501 21 393 m 444 497 q 493 406 444 406 q 551 446 526 406 q 575 544 575 486 q 519 649 575 649 q 466 606 488 649 q 444 497 444 563 z "},"A":{"ha":768,"x_min":-25,"x_max":793,"o":"m -25 0 l 217 1047 l 553 1047 l 793 0 l 501 0 l 478 133 l 290 133 l 267 0 l -25 0 m 324 357 l 444 357 l 404 639 q 399 675 401 654 q 393 732 397 696 q 385 797 389 768 q 376 732 381 768 q 370 675 372 696 q 365 639 368 654 l 324 357 z "},"B":{"ha":757,"x_min":33,"x_max":744,"o":"m 33 0 l 33 1047 l 363 1047 q 634 967 543 1047 q 725 750 725 886 q 531 538 725 554 q 694 465 643 521 q 744 300 744 408 q 657 83 744 167 q 429 0 569 0 l 33 0 m 315 228 q 340 226 326 226 q 424 253 393 226 q 456 328 456 281 q 424 401 456 375 q 338 428 393 428 l 315 428 l 315 228 m 315 640 l 335 640 q 415 664 386 640 q 444 731 444 688 q 344 821 444 821 q 315 819 331 821 l 315 640 z "},"C":{"ha":653,"x_min":21,"x_max":636,"o":"m 21 524 q 147 917 21 767 q 483 1067 274 1067 q 624 1040 547 1067 l 624 742 q 494 804 558 804 q 358 730 406 804 q 310 524 310 656 q 356 325 310 396 q 489 254 403 254 q 636 322 564 254 l 619 19 q 450 -18 525 -18 q 140 128 260 -18 q 21 524 21 274 z "},"D":{"ha":778,"x_min":33,"x_max":757,"o":"m 33 0 l 33 1047 l 278 1047 q 634 903 511 1047 q 757 522 757 758 q 642 139 757 278 q 297 0 528 0 l 33 0 m 315 253 q 468 515 468 261 q 428 713 468 640 q 325 786 389 786 l 315 786 l 315 253 z "},"E":{"ha":582,"x_min":33,"x_max":558,"o":"m 33 0 l 33 1047 l 558 1047 l 558 801 l 315 801 l 315 649 l 533 649 l 533 411 l 315 411 l 315 251 l 558 251 l 558 0 l 33 0 z "},"F":{"ha":550,"x_min":33,"x_max":533,"o":"m 33 0 l 33 1047 l 533 1047 l 533 801 l 315 801 l 315 649 l 518 649 l 518 411 l 315 411 l 315 0 l 33 0 z "},"G":{"ha":826,"x_min":21,"x_max":806,"o":"m 128 126 q 74 199 128 126 q 21 524 21 271 q 129 922 21 776 q 425 1067 238 1067 q 783 807 671 1067 l 510 707 q 417 814 494 814 q 310 524 310 814 q 417 233 310 233 q 488 274 461 233 q 515 385 515 315 l 414 385 l 414 606 l 806 606 l 806 563 q 710 118 806 254 q 425 -18 615 -18 q 128 126 235 -18 z "},"H":{"ha":767,"x_min":33,"x_max":733,"o":"m 33 0 l 33 1047 l 315 1047 l 315 676 l 451 676 l 451 1047 l 733 1047 l 733 0 l 451 0 l 451 421 l 315 421 l 315 0 l 33 0 z "},"I":{"ha":349,"x_min":33,"x_max":315,"o":"m 33 0 l 33 1047 l 315 1047 l 315 0 l 33 0 z "},"J":{"ha":538,"x_min":25,"x_max":508,"o":"m 25 15 l 25 308 q 139 246 72 246 q 225 376 225 246 l 225 1047 l 508 1047 l 508 319 q 210 -18 508 -18 q 25 15 128 -18 z "},"K":{"ha":776,"x_min":33,"x_max":801,"o":"m 33 0 l 33 1047 l 315 1047 l 315 692 q 308 599 315 651 l 482 1047 l 774 1047 l 547 542 l 801 0 l 503 0 l 308 483 q 315 375 315 421 l 315 0 l 33 0 z "},"L":{"ha":536,"x_min":33,"x_max":528,"o":"m 33 0 l 33 1047 l 315 1047 l 315 251 l 528 251 l 528 0 l 33 0 z "},"M":{"ha":1079,"x_min":-12,"x_max":1092,"o":"m -12 0 l 110 1047 l 461 1047 l 525 668 q 544 490 533 619 q 568 668 551 578 l 640 1047 l 989 1047 l 1092 0 l 796 0 l 775 478 q 772 565 774 499 q 768 668 771 631 q 740 467 761 585 l 651 0 l 421 0 l 346 467 q 321 668 328 583 q 316 566 319 631 q 311 478 313 501 l 288 0 l -12 0 z "},"N":{"ha":804,"x_min":33,"x_max":771,"o":"m 33 0 l 33 1047 l 303 1047 l 450 663 q 526 415 481 581 q 515 548 522 461 q 503 689 507 635 q 500 781 500 743 l 500 1047 l 771 1047 l 771 0 l 500 0 l 358 385 q 286 604 310 515 q 303 267 303 385 l 303 0 l 33 0 z "},"O":{"ha":839,"x_min":21,"x_max":818,"o":"m 21 524 q 131 916 21 765 q 419 1067 240 1067 q 708 916 599 1067 q 818 524 818 765 q 708 131 818 281 q 419 -18 599 -18 q 131 131 240 -18 q 21 524 21 281 m 342 730 q 328 693 342 730 q 314 524 314 657 q 342 318 314 390 q 419 246 369 246 q 497 318 469 246 q 525 524 525 390 q 497 730 525 657 q 419 803 469 803 q 342 730 369 803 z "},"P":{"ha":733,"x_min":33,"x_max":728,"o":"m 33 0 l 33 1047 l 307 1047 q 625 952 522 1047 q 728 690 728 857 q 638 435 728 528 q 360 343 547 343 l 315 343 l 315 0 l 33 0 m 315 575 l 342 575 q 419 607 389 575 q 449 693 449 639 q 421 780 449 744 q 342 815 393 815 l 315 815 l 315 575 z "},"Q":{"ha":839,"x_min":21,"x_max":871,"o":"m 132 131 q 76 205 132 131 q 21 524 21 279 q 131 917 21 768 q 419 1067 242 1067 q 708 916 597 1067 q 818 524 818 765 q 789 303 818 403 q 758 219 781 269 l 871 153 l 679 -26 l 622 49 q 535 0 590 18 q 419 -18 479 -18 q 132 131 243 -18 m 342 730 q 328 693 342 730 q 314 524 314 657 q 342 318 314 390 q 419 246 369 246 q 497 318 469 246 q 525 524 525 390 q 497 730 525 657 q 419 803 469 803 q 342 730 369 803 z "},"R":{"ha":753,"x_min":33,"x_max":778,"o":"m 33 0 l 33 1047 l 307 1047 q 626 954 525 1047 q 726 697 726 861 q 567 435 726 507 l 778 0 l 472 0 l 315 429 l 315 0 l 33 0 m 315 567 l 335 567 q 419 599 390 567 q 449 692 449 632 q 419 783 449 751 q 335 815 390 815 l 315 815 l 315 567 z "},"S":{"ha":583,"x_min":21,"x_max":571,"o":"m 21 722 q 113 967 21 867 q 339 1067 206 1067 q 542 1013 439 1067 l 542 693 q 376 808 467 808 q 323 790 344 808 q 301 744 301 771 q 358 661 301 703 l 404 628 q 532 494 493 561 q 571 338 571 428 q 477 83 571 183 q 238 -18 383 -18 q 25 26 139 -18 l 25 354 q 206 240 110 240 q 265 260 242 240 q 288 308 288 279 q 238 390 288 350 l 192 426 q 60 566 100 497 q 21 722 21 635 z "},"T":{"ha":619,"x_min":8,"x_max":611,"o":"m 8 796 l 8 1047 l 611 1047 l 611 796 l 451 796 l 451 0 l 168 0 l 168 796 l 8 796 z "},"U":{"ha":769,"x_min":29,"x_max":740,"o":"m 29 347 l 29 1047 l 313 1047 l 313 372 q 329 274 313 303 q 386 246 346 246 q 442 274 426 246 q 457 372 457 301 l 457 1047 l 740 1047 l 740 347 q 644 77 740 172 q 386 -18 549 -18 q 126 77 224 -18 q 29 347 29 172 z "},"V":{"ha":764,"x_min":-25,"x_max":789,"o":"m -25 1047 l 272 1047 l 324 749 q 382 364 372 478 q 440 749 392 478 l 492 1047 l 789 1047 l 525 0 l 238 0 l -25 1047 z "},"W":{"ha":1133,"x_min":-25,"x_max":1158,"o":"m -25 1047 l 251 1047 l 303 722 q 339 379 321 619 q 397 796 364 621 l 444 1047 l 689 1047 l 736 796 q 794 379 769 619 q 831 722 813 619 l 882 1047 l 1158 1047 l 925 0 l 661 0 l 608 367 q 567 656 604 394 q 525 367 529 394 l 472 0 l 208 0 l -25 1047 z "},"X":{"ha":761,"x_min":-25,"x_max":786,"o":"m -25 0 l 229 543 l -11 1047 l 304 1047 l 351 906 q 381 800 358 888 q 410 904 389 833 l 451 1047 l 768 1047 l 529 543 l 786 0 l 472 0 l 422 138 q 381 281 396 213 q 336 138 358 197 l 283 0 l -25 0 z "},"Y":{"ha":736,"x_min":-25,"x_max":761,"o":"m -25 1047 l 269 1047 l 321 892 q 369 724 346 818 q 417 892 396 832 l 468 1047 l 761 1047 l 518 443 l 518 0 l 235 0 l 235 443 l -25 1047 z "},"Z":{"ha":733,"x_min":-25,"x_max":731,"o":"m -25 0 l -25 28 l 219 583 q 338 801 272 706 l 38 801 l 38 1047 l 731 1047 l 731 1019 l 474 447 q 442 380 460 415 q 405 303 425 344 q 374 239 385 261 q 476 251 407 251 l 696 251 l 696 0 l -25 0 z "},"[":{"ha":400,"x_min":0,"x_max":400,"o":"m 0 -326 l 0 1146 l 400 1146 l 400 958 l 239 958 l 239 -139 l 400 -139 l 400 -326 l 0 -326 z "},"\\":{"ha":542,"x_min":17,"x_max":525,"o":"m 17 1047 l 185 1067 l 525 0 l 360 -18 l 17 1047 z "},"]":{"ha":400,"x_min":0,"x_max":400,"o":"m 0 -139 l 161 -139 l 161 958 l 0 958 l 0 1146 l 400 1146 l 400 -326 l 0 -326 l 0 -139 z "},"^":{"ha":767,"x_min":0,"x_max":767,"o":"m 0 529 l 219 1056 l 547 1056 l 767 529 l 507 529 l 383 854 l 260 529 l 0 529 z "},"_":{"ha":806,"x_min":33,"x_max":772,"o":"m 33 0 l 33 172 l 772 172 l 772 0 l 33 0 z "},"`":{"ha":293,"x_min":0,"x_max":293,"o":"m 0 1047 l 219 1047 l 293 815 l 138 815 l 0 1047 z "},"a":{"ha":725,"x_min":21,"x_max":697,"o":"m 21 367 q 83 645 21 542 q 251 749 144 749 q 431 617 364 749 q 425 694 425 661 l 425 733 l 697 733 l 697 0 l 425 0 l 425 42 q 431 124 425 79 q 244 -15 360 -15 q 81 88 140 -15 q 21 367 21 190 m 368 524 q 335 524 368 524 q 303 367 303 524 q 368 210 303 210 q 433 367 433 210 q 368 524 433 524 z "},"b":{"ha":731,"x_min":33,"x_max":710,"o":"m 33 0 l 33 1146 l 306 1146 l 306 744 q 301 628 306 692 q 377 722 340 696 q 475 749 414 749 q 647 649 585 749 q 710 367 710 549 q 647 86 710 188 q 475 -15 585 -15 q 381 10 419 -15 q 301 99 342 35 q 306 42 306 49 l 306 0 l 33 0 m 363 524 q 330 524 363 524 q 297 367 297 524 q 363 210 297 210 q 428 367 428 210 q 363 524 428 524 z "},"c":{"ha":457,"x_min":21,"x_max":424,"o":"m 21 367 q 119 639 21 529 q 368 749 218 749 q 424 744 386 749 l 424 499 q 399 503 414 503 q 330 465 357 503 q 303 367 303 426 q 330 268 303 307 q 399 229 357 229 q 424 233 414 229 l 424 -11 q 350 -15 374 -15 q 113 94 204 -15 q 21 367 21 203 z "},"d":{"ha":731,"x_min":21,"x_max":697,"o":"m 21 367 q 83 649 21 549 q 256 749 146 749 q 353 723 317 749 q 429 628 389 697 q 425 744 425 692 l 425 1146 l 697 1146 l 697 0 l 425 0 l 425 42 q 429 99 425 49 q 350 10 389 35 q 256 -15 311 -15 q 83 86 146 -15 q 21 367 21 188 m 368 524 q 335 524 368 524 q 303 367 303 524 q 368 210 303 210 q 433 367 433 210 q 368 524 433 524 z "},"e":{"ha":721,"x_min":21,"x_max":700,"o":"m 115 90 q 68 142 115 90 q 21 367 21 194 q 115 644 21 539 q 361 749 210 749 q 607 646 514 749 q 700 367 700 543 q 699 338 700 358 q 699 310 699 318 l 288 310 q 310 222 290 253 q 361 190 331 190 q 424 244 408 190 l 686 236 q 576 55 669 125 q 361 -15 483 -15 q 115 90 210 -15 m 288 447 l 435 447 q 361 543 422 543 q 288 447 300 543 z "},"f":{"ha":476,"x_min":14,"x_max":463,"o":"m 14 514 l 14 733 l 94 733 l 94 868 q 156 1083 94 1008 q 335 1157 217 1157 q 463 1138 388 1157 l 463 885 q 407 911 426 911 q 364 836 364 911 l 364 733 l 463 733 l 463 514 l 364 514 l 364 0 l 94 0 l 94 514 l 14 514 z "},"g":{"ha":725,"x_min":21,"x_max":697,"o":"m 21 367 q 84 642 21 536 q 257 749 147 749 q 345 722 307 749 q 428 629 383 696 q 424 692 424 683 l 424 733 l 697 733 l 697 -21 q 610 -256 697 -172 q 360 -340 522 -340 q 130 -276 208 -340 q 32 -75 51 -212 l 307 -75 q 367 -137 311 -137 q 428 -31 428 -137 l 428 93 q 258 -10 361 -10 q 87 94 153 -10 q 21 367 21 199 m 368 528 q 335 528 368 528 q 303 371 303 528 q 368 214 303 214 q 433 371 433 214 q 368 528 433 528 z "},"h":{"ha":707,"x_min":33,"x_max":679,"o":"m 33 0 l 33 1146 l 306 1146 l 306 692 q 300 588 306 636 q 384 709 339 669 q 492 749 429 749 q 631 682 582 749 q 679 500 679 615 l 679 0 l 407 0 l 407 383 q 397 458 407 438 q 360 478 386 478 q 306 369 306 478 l 306 0 l 33 0 z "},"i":{"ha":372,"x_min":28,"x_max":344,"o":"m 74 848 q 51 871 74 848 q 28 960 28 894 q 74 1072 28 1025 q 186 1119 121 1119 q 298 1072 251 1119 q 344 960 344 1025 q 298 848 344 894 q 186 801 251 801 q 74 848 121 801 m 50 0 l 50 733 l 322 733 l 322 0 l 50 0 z "},"j":{"ha":372,"x_min":28,"x_max":344,"o":"m 74 848 q 51 871 74 848 q 28 960 28 894 q 74 1072 28 1025 q 186 1119 121 1119 q 298 1072 251 1119 q 344 960 344 1025 q 298 848 344 894 q 186 801 251 801 q 74 848 121 801 m 50 -321 l 50 733 l 322 733 l 322 -321 l 50 -321 z "},"k":{"ha":749,"x_min":33,"x_max":749,"o":"m 33 0 l 33 1146 l 306 1146 l 306 403 q 347 517 322 454 l 435 733 l 729 733 l 550 397 l 749 0 l 435 0 l 331 285 q 306 368 328 290 l 306 0 l 33 0 z "},"l":{"ha":339,"x_min":33,"x_max":306,"o":"m 33 0 l 33 1146 l 306 1146 l 306 0 l 33 0 z "},"m":{"ha":1074,"x_min":28,"x_max":1049,"o":"m 28 0 l 28 733 l 300 733 l 300 694 q 294 606 300 654 q 376 716 331 683 q 486 749 421 749 q 665 600 615 749 q 860 749 739 749 q 998 681 947 749 q 1049 500 1049 613 l 1049 0 l 776 0 l 776 383 q 728 485 776 485 q 674 369 674 485 l 674 0 l 401 0 l 401 383 q 391 458 401 438 q 354 478 381 478 q 300 369 300 478 l 300 0 l 28 0 z "},"n":{"ha":701,"x_min":28,"x_max":674,"o":"m 28 0 l 28 733 l 300 733 l 300 692 q 294 588 300 636 q 378 709 333 669 q 486 749 424 749 q 625 682 576 749 q 674 500 674 615 l 674 0 l 401 0 l 401 383 q 391 458 401 438 q 354 478 381 478 q 300 369 300 478 l 300 0 l 28 0 z "},"o":{"ha":714,"x_min":17,"x_max":697,"o":"m 110 89 q 63 141 110 89 q 17 367 17 193 q 110 644 17 540 q 357 749 203 749 q 604 644 511 749 q 697 367 697 540 q 604 89 697 193 q 357 -15 511 -15 q 110 89 203 -15 m 301 498 q 291 475 301 498 q 281 367 281 451 q 301 235 281 282 q 357 189 322 189 q 413 235 392 189 q 435 367 435 282 q 413 498 435 451 q 357 544 392 544 q 301 498 322 544 z "},"p":{"ha":725,"x_min":28,"x_max":704,"o":"m 28 -326 l 28 733 l 300 733 l 300 692 q 296 629 300 683 q 376 722 336 696 q 469 749 415 749 q 642 647 579 749 q 704 367 704 546 q 642 85 704 185 q 469 -15 579 -15 q 373 8 408 -15 q 296 99 338 32 q 298 60 296 89 q 300 28 300 31 l 300 -326 l 28 -326 m 357 524 q 324 524 357 524 q 292 367 292 524 q 357 210 292 210 q 422 367 422 210 q 357 524 422 524 z "},"q":{"ha":725,"x_min":21,"x_max":697,"o":"m 21 367 q 83 647 21 546 q 256 749 146 749 q 349 722 310 749 q 429 629 389 696 q 425 692 425 683 l 425 733 l 697 733 l 697 -326 l 425 -326 l 425 28 q 427 60 425 31 q 429 99 429 89 q 352 8 388 32 q 256 -15 317 -15 q 83 85 146 -15 q 21 367 21 185 m 368 524 q 335 524 368 524 q 303 367 303 524 q 368 210 303 210 q 433 367 433 210 q 368 524 433 524 z "},"r":{"ha":522,"x_min":28,"x_max":501,"o":"m 28 0 l 28 733 l 300 733 l 300 694 q 294 588 300 636 q 486 749 368 749 l 501 749 l 501 443 q 417 469 461 469 q 331 429 363 469 q 300 315 300 389 l 300 0 l 28 0 z "},"s":{"ha":564,"x_min":6,"x_max":558,"o":"m 6 61 l 100 263 q 239 188 171 188 q 292 225 292 188 q 221 283 292 258 q 28 499 28 351 q 114 678 28 607 q 329 749 200 749 q 547 689 438 749 l 456 494 q 343 554 399 554 q 294 522 294 554 q 313 487 294 500 q 378 453 331 474 q 518 365 478 410 q 558 242 558 321 q 475 57 558 129 q 265 -15 392 -15 q 145 -1 197 -15 q 6 61 93 14 z "},"t":{"ha":471,"x_min":14,"x_max":457,"o":"m 14 514 l 14 733 l 92 733 l 92 949 l 361 949 l 361 733 l 457 733 l 457 514 l 361 514 l 361 0 l 92 0 l 92 514 l 14 514 z "},"u":{"ha":715,"x_min":28,"x_max":688,"o":"m 28 283 l 28 733 l 300 733 l 300 319 q 312 236 300 261 q 358 211 324 211 q 404 236 393 211 q 415 319 415 261 l 415 733 l 688 733 l 688 283 q 599 65 688 144 q 358 -15 510 -15 q 117 65 207 -15 q 28 283 28 144 z "},"v":{"ha":700,"x_min":0,"x_max":700,"o":"m 0 733 l 272 733 l 314 504 q 350 269 340 357 q 386 504 360 357 l 428 733 l 700 733 l 481 0 l 197 0 l 0 733 z "},"w":{"ha":1069,"x_min":0,"x_max":1069,"o":"m 0 733 l 267 733 l 308 497 q 336 292 318 433 q 372 519 353 439 l 419 733 l 650 733 l 697 519 q 733 292 718 424 q 761 497 754 457 l 803 733 l 1069 733 l 874 0 l 608 0 l 563 256 q 535 447 542 369 q 508 256 526 354 l 461 0 l 199 0 l 0 733 z "},"x":{"ha":757,"x_min":0,"x_max":757,"o":"m 0 0 l 224 381 l 13 733 l 322 733 l 349 654 q 360 625 350 651 q 376 575 369 599 q 404 654 397 638 l 435 733 l 736 733 l 519 381 l 757 0 l 443 0 l 415 68 q 376 174 394 118 q 335 68 360 126 l 306 0 l 0 0 z "},"y":{"ha":717,"x_min":0,"x_max":717,"o":"m 0 733 l 271 733 l 322 522 q 356 321 333 482 q 390 522 371 440 l 443 733 l 717 733 l 379 -307 l 110 -307 l 219 28 l 0 733 z "},"z":{"ha":631,"x_min":0,"x_max":631,"o":"m 0 0 l 178 381 q 247 514 213 453 l 40 514 l 40 733 l 631 733 l 458 360 q 386 222 429 297 l 590 222 l 590 0 l 0 0 z "},"{":{"ha":469,"x_min":0,"x_max":469,"o":"m 0 319 l 0 500 q 69 538 51 511 q 86 631 86 564 l 86 910 q 144 1093 86 1040 q 342 1146 201 1146 l 469 1146 l 469 958 l 425 958 q 333 939 353 958 q 314 847 314 919 l 314 611 q 292 488 314 531 q 218 410 271 444 q 292 332 271 375 q 314 208 314 289 l 314 -28 q 333 -119 314 -100 q 425 -139 353 -139 l 469 -139 l 469 -326 l 342 -326 q 144 -274 201 -326 q 86 -90 86 -221 l 86 188 q 68 281 86 254 q 0 319 50 308 z "},"|":{"ha":239,"x_min":0,"x_max":239,"o":"m 0 -261 l 0 1047 l 239 1047 l 239 -261 l 0 -261 z "},"}":{"ha":469,"x_min":0,"x_max":469,"o":"m 0 -139 l 44 -139 q 136 -119 117 -139 q 156 -28 156 -100 l 156 208 q 177 332 156 289 q 251 410 199 375 q 177 488 199 444 q 156 611 156 531 l 156 847 q 136 939 156 919 q 44 958 117 958 l 0 958 l 0 1146 l 128 1146 q 326 1093 268 1146 q 383 910 383 1040 l 383 631 q 401 538 383 564 q 469 500 418 511 l 469 319 q 401 281 419 308 q 383 188 383 254 l 383 -90 q 326 -274 383 -221 q 128 -326 268 -326 l 0 -326 l 0 -139 z "},"~":{"ha":757,"x_min":0,"x_max":757,"o":"m 0 963 q 229 1165 86 1165 q 407 1110 283 1165 q 535 1068 503 1068 q 658 1169 603 1068 l 757 1088 q 657 933 713 979 q 514 888 601 888 q 339 947 474 888 q 221 983 265 983 q 100 881 157 983 l 0 963 z "},"":{"ha":736,"x_min":21,"x_max":719,"o":"m 21 368 l 21 481 l 68 481 q 67 524 67 496 l 67 564 l 21 564 l 21 676 l 81 676 q 228 962 117 857 q 496 1067 340 1067 q 614 1052 540 1067 q 719 1018 688 1038 l 651 767 q 536 804 603 804 q 376 676 419 804 l 628 676 l 599 564 l 356 564 l 356 524 q 357 481 356 496 l 576 481 l 547 368 l 379 368 q 536 254 422 254 q 651 292 604 254 l 719 31 q 614 -3 688 11 q 496 -18 540 -18 q 228 85 340 -18 q 81 368 117 189 l 21 368 z "}," ":{"ha":417,"x_min":0,"x_max":0,"o":""},"¡":{"ha":368,"x_min":25,"x_max":343,"o":"m 72 792 q 48 815 72 792 q 25 904 25 839 q 72 1016 25 969 q 183 1063 118 1063 q 296 1016 249 1063 q 343 904 343 969 q 296 792 343 839 q 183 744 249 744 q 72 792 118 744 m 42 0 l 64 692 l 304 692 l 326 0 l 42 0 z "},"¢":{"ha":451,"x_min":21,"x_max":424,"o":"m 21 533 q 73 738 21 650 q 217 872 125 826 l 217 1019 l 349 1019 l 349 907 q 368 908 353 908 q 424 904 386 908 l 424 658 q 399 663 414 663 q 330 624 357 663 q 303 526 303 586 q 330 428 303 467 q 399 389 357 389 q 424 393 414 389 l 424 149 q 349 144 374 144 l 349 26 l 217 26 l 217 174 q 74 313 126 215 q 21 533 21 411 z "},"£":{"ha":711,"x_min":0,"x_max":711,"o":"m 0 122 q 122 197 68 171 q 151 303 151 247 q 124 453 151 357 l 26 453 l 26 599 l 78 599 l 71 624 q 42 781 42 725 q 130 982 42 901 q 349 1063 218 1063 q 654 917 519 1063 l 503 767 q 399 844 453 844 q 347 822 369 844 q 324 764 324 799 q 350 657 324 729 q 363 599 361 625 l 617 599 l 617 453 l 381 453 l 381 433 q 313 250 381 335 q 410 224 351 247 q 486 200 468 200 q 571 250 536 200 l 711 174 q 463 -18 639 -18 q 324 11 410 -18 q 213 40 239 40 q 78 -6 153 40 l 0 122 z "},"¤":{"ha":1033,"x_min":0,"x_max":1033,"o":"m 0 188 l 164 351 q 108 556 108 449 q 168 764 108 658 l 0 932 l 142 1072 l 311 903 q 517 960 418 960 q 719 904 618 960 l 888 1071 l 1028 931 l 863 767 q 926 556 926 661 q 869 353 926 460 l 1033 189 l 894 49 l 731 211 q 518 149 626 149 q 303 210 414 149 l 139 49 l 0 188 m 347 556 q 397 435 347 486 q 517 385 446 385 q 638 435 588 385 q 688 557 688 486 q 637 677 688 626 q 519 728 586 728 q 397 677 447 728 q 347 556 347 626 z "},"¥":{"ha":786,"x_min":0,"x_max":786,"o":"m 0 1047 l 294 1047 l 346 892 q 394 724 371 818 q 442 892 421 832 l 493 1047 l 786 1047 l 639 681 l 778 681 l 778 568 l 593 568 l 551 464 l 778 464 l 778 350 l 543 350 l 543 0 l 260 0 l 260 350 l 10 350 l 10 464 l 250 464 l 206 568 l 10 568 l 10 681 l 157 681 l 0 1047 z "},"¦":{"ha":239,"x_min":0,"x_max":239,"o":"m 0 240 l 239 240 l 239 -261 l 0 -261 l 0 240 m 0 479 l 0 1047 l 239 1047 l 239 479 l 0 479 z "},"§":{"ha":703,"x_min":0,"x_max":703,"o":"m 0 13 l 235 13 q 260 -99 235 -65 q 346 -132 286 -132 q 415 -106 389 -132 q 440 -40 440 -81 q 418 17 440 -4 q 310 86 396 39 q 63 249 119 186 q 6 422 6 311 q 118 643 6 556 q 49 747 67 701 q 31 854 31 793 q 124 1068 31 983 q 363 1153 217 1153 q 593 1071 517 1153 q 669 800 669 989 l 446 800 q 424 926 446 890 q 344 961 403 961 q 258 882 258 961 q 281 823 258 847 q 363 768 304 799 l 465 715 q 642 586 592 649 q 692 433 692 524 q 589 222 692 306 q 703 -4 703 131 q 598 -240 703 -146 q 344 -335 493 -335 q 0 13 0 -335 m 274 499 q 260 486 274 499 q 246 428 246 472 q 275 353 246 383 q 349 322 304 322 q 424 350 396 322 q 451 425 451 378 q 424 499 451 472 q 349 526 396 526 q 274 499 301 526 z "},"¨":{"ha":529,"x_min":11,"x_max":518,"o":"m 44 859 q 27 875 44 859 q 11 940 11 892 q 44 1022 11 989 q 125 1056 76 1056 q 206 1022 174 1056 q 239 940 239 989 q 206 859 239 892 q 125 826 174 826 q 44 859 76 826 m 323 859 q 307 875 323 859 q 290 940 290 892 q 323 1022 290 989 q 404 1056 356 1056 q 485 1022 453 1056 q 518 940 518 989 q 485 859 518 892 q 404 826 453 826 q 323 859 356 826 z "},"©":{"ha":1131,"x_min":21,"x_max":1110,"o":"m 21 522 q 182 911 21 751 q 574 1071 343 1071 q 950 908 790 1071 q 1110 522 1110 746 q 949 138 1110 299 q 567 -24 788 -24 q 183 138 344 -24 q 21 522 21 299 m 144 522 q 269 217 144 344 q 565 90 393 90 q 861 217 738 90 q 985 524 985 344 q 863 828 985 700 q 572 957 742 957 q 270 831 396 957 q 144 522 144 704 m 261 518 q 359 751 261 654 q 597 847 457 847 q 769 821 683 847 l 778 569 l 760 581 q 740 593 758 582 q 719 606 722 604 q 700 616 715 608 q 678 625 685 624 q 658 629 671 626 q 633 632 646 632 q 554 601 588 632 q 521 525 521 569 q 555 447 521 479 q 638 415 589 415 q 760 463 690 415 l 778 475 l 774 238 q 593 200 672 200 q 357 292 453 200 q 261 518 261 385 z "},"ª":{"ha":386,"x_min":0,"x_max":386,"o":"m 0 461 l 0 544 l 386 544 l 386 461 l 0 461 m 34 667 q 17 697 34 667 q 0 828 0 726 q 35 988 0 929 q 131 1047 69 1047 q 233 971 196 1047 q 231 992 233 976 q 229 1017 229 1008 l 229 1038 l 386 1038 l 386 618 l 229 618 l 229 639 q 233 689 229 664 q 126 608 194 608 q 34 667 68 608 m 156 828 q 192 739 156 739 q 228 828 228 739 q 192 919 228 919 q 156 828 156 919 z "},"«":{"ha":675,"x_min":0,"x_max":675,"o":"m 0 376 l 239 693 l 361 601 l 182 376 l 361 153 l 239 61 l 0 376 m 314 376 l 553 693 l 675 601 l 497 376 l 675 153 l 553 61 l 314 376 z "},"¬":{"ha":681,"x_min":0,"x_max":681,"o":"m 0 207 l 0 468 l 681 468 l 681 0 l 390 0 l 390 207 l 0 207 z "},"­":{"ha":340,"x_min":0,"x_max":340,"o":"m 0 272 l 0 482 l 340 482 l 340 272 l 0 272 z "},"®":{"ha":1131,"x_min":21,"x_max":1110,"o":"m 21 522 q 182 911 21 751 q 574 1071 343 1071 q 950 908 790 1071 q 1110 522 1110 746 q 949 138 1110 299 q 567 -24 788 -24 q 183 138 344 -24 q 21 522 21 299 m 144 522 q 269 217 144 344 q 565 90 393 90 q 861 217 738 90 q 985 524 985 344 q 863 828 985 700 q 572 957 742 957 q 270 831 396 957 q 144 522 144 704 m 314 239 l 314 806 l 571 806 q 749 751 683 806 q 815 608 815 697 q 732 467 815 500 l 711 458 l 874 239 l 604 239 l 524 393 l 524 239 l 314 239 m 524 553 l 543 553 q 599 597 599 553 q 551 646 599 646 l 524 646 l 524 553 z "},"¯":{"ha":493,"x_min":0,"x_max":493,"o":"m 0 868 l 0 1021 l 493 1021 l 493 868 l 0 868 z "},"°":{"ha":519,"x_min":0,"x_max":519,"o":"m 76 628 q 38 666 76 628 q 0 813 0 704 q 76 997 0 921 q 260 1072 151 1072 q 444 997 368 1072 q 519 813 519 921 q 444 628 519 704 q 260 553 368 553 q 76 628 151 553 m 175 897 q 157 879 175 897 q 139 813 139 861 q 175 728 139 764 q 260 692 211 692 q 344 727 310 692 q 378 813 378 763 q 344 897 378 863 q 260 932 310 932 q 175 897 211 932 z "},"±":{"ha":733,"x_min":0,"x_max":733,"o":"m 0 -42 l 0 121 l 733 121 l 733 -42 l 0 -42 m 0 453 l 0 615 l 283 615 l 283 896 l 450 896 l 450 615 l 733 615 l 733 453 l 450 453 l 450 183 l 283 183 l 283 453 l 0 453 z "},"²":{"ha":457,"x_min":0,"x_max":457,"o":"m 0 419 l 178 650 q 259 770 236 725 q 282 861 282 815 q 246 913 282 913 q 207 840 207 913 l 207 814 l 35 814 l 35 842 q 95 997 35 936 q 249 1058 156 1058 q 399 999 340 1058 q 457 851 457 940 q 296 564 457 717 q 449 568 369 568 l 449 419 l 0 419 z "},"³":{"ha":433,"x_min":0,"x_max":433,"o":"m 0 594 l 0 608 l 175 608 q 214 553 175 553 q 258 607 258 553 q 190 669 258 669 q 158 667 189 669 l 158 807 q 182 806 169 806 q 250 865 250 806 q 217 914 250 914 q 186 875 186 914 l 186 864 l 13 864 q 76 1007 19 956 q 222 1058 133 1058 q 367 1006 308 1058 q 425 875 425 953 q 350 744 425 789 q 433 600 433 697 q 371 461 433 514 q 214 408 308 408 q 61 460 122 408 q 0 594 0 513 z "},"´":{"ha":294,"x_min":0,"x_max":294,"o":"m 0 815 l 74 1047 l 294 1047 l 156 815 l 0 815 z "},"µ":{"ha":715,"x_min":28,"x_max":688,"o":"m 28 -321 l 28 733 l 300 733 l 300 319 q 311 235 300 260 q 358 211 322 211 q 403 234 392 211 q 415 319 415 257 l 415 733 l 688 733 l 688 283 q 598 65 688 144 q 361 -15 508 -15 q 240 6 299 -15 l 301 -321 l 28 -321 z "},"¶":{"ha":776,"x_min":0,"x_max":776,"o":"m 0 776 q 263 1047 0 1047 l 776 1047 l 776 801 l 672 801 l 672 -156 l 490 -156 l 490 801 l 367 801 l 367 -156 l 185 -156 l 185 535 q 52 601 104 535 q 0 776 0 667 z "},"·":{"ha":322,"x_min":3,"x_max":319,"o":"m 49 412 q 26 435 49 412 q 3 524 3 458 q 49 635 3 589 q 161 682 96 682 q 273 635 226 682 q 319 524 319 589 q 273 412 319 458 q 161 365 226 365 q 49 412 96 365 z "},"¸":{"ha":282,"x_min":0,"x_max":282,"o":"m 0 -247 l 154 -54 l 282 -137 l 104 -322 l 0 -247 z "},"¹":{"ha":247,"x_min":0,"x_max":247,"o":"m 0 896 l 0 1047 l 247 1047 l 247 418 l 69 418 l 69 896 l 0 896 z "},"º":{"ha":392,"x_min":0,"x_max":392,"o":"m 51 667 q 26 697 51 667 q 0 826 0 726 q 53 987 0 926 q 193 1047 106 1047 q 339 990 286 1047 q 392 826 392 933 q 338 669 392 729 q 193 608 283 608 q 51 667 103 608 m 1 461 l 1 544 l 386 544 l 386 461 l 1 461 m 151 826 q 196 726 151 726 q 239 826 239 726 q 196 929 239 929 q 151 826 151 929 z "},"»":{"ha":675,"x_min":0,"x_max":675,"o":"m 0 153 l 179 376 l 0 601 l 122 693 l 361 376 l 122 61 l 0 153 m 314 153 l 493 376 l 314 601 l 436 693 l 675 376 l 436 61 l 314 153 z "},"¼":{"ha":1136,"x_min":0,"x_max":1136,"o":"m 0 896 l 0 1047 l 247 1047 l 247 418 l 69 418 l 69 896 l 0 896 m 158 -7 l 763 1117 l 879 1056 l 271 -69 l 158 -7 m 672 125 l 672 261 l 865 628 l 1082 628 l 1082 265 l 1136 265 l 1136 125 l 1082 125 l 1082 0 l 903 0 l 903 125 l 672 125 m 824 265 l 910 265 l 910 379 q 915 433 910 401 l 824 265 z "},"½":{"ha":1126,"x_min":0,"x_max":1126,"o":"m 0 896 l 0 1047 l 247 1047 l 247 418 l 69 418 l 69 896 l 0 896 m 158 -7 l 763 1117 l 879 1056 l 271 -69 l 158 -7 m 669 0 l 847 231 q 928 351 906 306 q 951 442 951 396 q 915 493 951 493 q 876 421 876 493 l 876 394 l 704 394 l 704 422 q 765 578 704 517 q 918 639 825 639 q 1068 580 1010 639 q 1126 432 1126 521 q 965 144 1126 297 q 1118 149 1039 149 l 1118 0 l 669 0 z "},"¾":{"ha":1221,"x_min":0,"x_max":1221,"o":"m 0 594 l 0 608 l 175 608 q 214 553 175 553 q 258 607 258 553 q 190 669 258 669 q 158 667 189 669 l 158 807 q 182 806 169 806 q 250 865 250 806 q 217 914 250 914 q 186 875 186 914 l 186 864 l 13 864 q 76 1007 19 956 q 222 1058 133 1058 q 367 1006 308 1058 q 425 875 425 953 q 350 744 425 789 q 433 600 433 697 q 371 461 433 514 q 214 408 308 408 q 61 460 122 408 q 0 594 0 513 m 243 -7 l 847 1117 l 964 1056 l 356 -69 l 243 -7 m 757 125 l 757 261 l 950 628 l 1167 628 l 1167 265 l 1221 265 l 1221 125 l 1167 125 l 1167 0 l 988 0 l 988 125 l 757 125 m 908 265 l 994 265 l 994 379 q 1000 433 994 401 l 908 265 z "},"¿":{"ha":713,"x_min":19,"x_max":693,"o":"m 19 318 q 71 499 19 426 q 221 599 122 572 l 221 707 l 490 707 l 490 450 q 447 453 449 453 q 300 324 300 453 q 361 215 300 215 q 419 326 419 215 l 693 326 q 605 74 693 167 q 360 -18 517 -18 q 117 81 215 -18 q 19 318 19 179 m 241 797 q 218 820 241 797 q 194 908 194 843 q 241 1020 194 974 q 353 1067 288 1067 q 465 1020 418 1067 q 511 908 511 974 q 465 797 511 843 q 353 750 418 750 q 241 797 288 750 z "},"À":{"ha":768,"x_min":-25,"x_max":793,"o":"m -25 0 l 217 1047 l 553 1047 l 793 0 l 501 0 l 478 133 l 290 133 l 267 0 l -25 0 m 197 1314 l 425 1314 l 504 1086 l 342 1086 l 197 1314 m 324 357 l 444 357 l 404 639 q 399 675 401 654 q 393 732 397 696 q 385 797 389 768 q 376 732 381 768 q 370 675 372 696 q 365 639 368 654 l 324 357 z "},"Á":{"ha":768,"x_min":-25,"x_max":793,"o":"m -25 0 l 217 1047 l 553 1047 l 793 0 l 501 0 l 478 133 l 290 133 l 267 0 l -25 0 m 296 1086 l 375 1314 l 603 1314 l 458 1086 l 296 1086 m 324 357 l 444 357 l 404 639 q 399 675 401 654 q 393 732 397 696 q 385 797 389 768 q 376 732 381 768 q 370 675 372 696 q 365 639 368 654 l 324 357 z "},"Â":{"ha":768,"x_min":-25,"x_max":793,"o":"m -25 0 l 217 1047 l 553 1047 l 793 0 l 501 0 l 478 133 l 290 133 l 267 0 l -25 0 m 132 1086 l 271 1314 l 499 1314 l 638 1086 l 460 1086 l 385 1206 l 310 1086 l 132 1086 m 324 357 l 444 357 l 404 639 q 399 675 401 654 q 393 732 397 696 q 385 797 389 768 q 376 732 381 768 q 370 675 372 696 q 365 639 368 654 l 324 357 z "},"Ã":{"ha":768,"x_min":-25,"x_max":793,"o":"m -25 0 l 217 1047 l 553 1047 l 793 0 l 501 0 l 478 133 l 290 133 l 267 0 l -25 0 m 118 1086 q 276 1293 118 1293 q 375 1272 324 1293 l 422 1253 q 467 1242 453 1242 q 511 1299 507 1242 l 651 1299 l 651 1276 q 606 1141 651 1193 q 486 1089 560 1089 q 393 1115 467 1089 q 303 1142 319 1142 q 261 1086 263 1142 l 118 1086 m 324 357 l 444 357 l 404 639 q 399 675 401 654 q 393 732 397 696 q 385 797 389 768 q 376 732 381 768 q 370 675 372 696 q 365 639 368 654 l 324 357 z "},"Ä":{"ha":768,"x_min":-25,"x_max":793,"o":"m -25 0 l 217 1047 l 553 1047 l 793 0 l 501 0 l 478 133 l 290 133 l 267 0 l -25 0 m 142 1200 q 175 1281 142 1247 q 254 1314 208 1314 q 335 1281 301 1314 q 368 1200 368 1247 q 334 1120 368 1154 q 254 1086 300 1086 q 175 1120 208 1086 q 142 1200 142 1154 m 324 357 l 444 357 l 404 639 q 399 675 401 654 q 393 732 397 696 q 385 797 389 768 q 376 732 381 768 q 370 675 372 696 q 365 639 368 654 l 324 357 m 436 1119 q 419 1136 436 1119 q 403 1200 403 1153 q 436 1281 403 1247 q 517 1314 469 1314 q 597 1280 564 1314 q 631 1199 631 1246 q 597 1119 631 1153 q 518 1086 564 1086 q 436 1119 469 1086 z "},"Å":{"ha":768,"x_min":-25,"x_max":793,"o":"m -25 0 l 217 1047 l 553 1047 l 793 0 l 501 0 l 478 133 l 290 133 l 267 0 l -25 0 m 249 1201 q 288 1298 249 1260 q 385 1336 326 1336 q 481 1296 440 1336 q 521 1199 521 1256 q 481 1103 521 1143 q 386 1064 440 1064 q 288 1105 328 1064 q 249 1201 249 1146 m 324 357 l 444 357 l 404 639 q 399 675 401 654 q 393 732 397 696 q 385 797 389 768 q 376 732 381 768 q 370 675 372 696 q 365 639 368 654 l 324 357 m 328 1200 q 345 1159 328 1176 q 386 1142 363 1142 q 426 1159 410 1142 q 443 1199 443 1176 q 426 1241 443 1224 q 385 1258 410 1258 q 344 1242 361 1258 q 328 1200 328 1225 z "},"Æ":{"ha":947,"x_min":-25,"x_max":972,"o":"m -25 0 l 217 1047 l 807 1047 l 846 801 l 626 801 l 651 649 l 869 649 l 907 411 l 689 411 l 715 251 l 932 251 l 972 0 l 501 0 l 478 133 l 290 133 l 267 0 l -25 0 m 324 357 l 444 357 l 404 639 q 399 675 401 654 q 393 732 397 696 q 385 797 389 768 q 375 708 381 760 q 367 639 369 657 l 324 357 z "},"Ç":{"ha":653,"x_min":21,"x_max":636,"o":"m 21 524 q 147 917 21 767 q 483 1067 274 1067 q 624 1040 547 1067 l 624 742 q 494 804 558 804 q 358 730 406 804 q 310 524 310 656 q 356 325 310 396 q 489 254 403 254 q 636 322 564 254 l 619 19 q 450 -18 525 -18 q 140 128 260 -18 q 21 524 21 274 m 274 -304 l 306 -183 q 343 -218 318 -206 q 390 -231 368 -231 q 434 -215 415 -231 q 453 -175 453 -199 q 432 -134 453 -150 q 382 -118 411 -118 q 318 -136 351 -118 l 338 -64 q 425 -47 371 -47 q 535 -87 490 -47 q 581 -187 581 -126 q 530 -295 581 -251 q 406 -339 479 -339 q 274 -304 331 -339 z "},"È":{"ha":582,"x_min":33,"x_max":558,"o":"m 33 0 l 33 1047 l 558 1047 l 558 801 l 315 801 l 315 649 l 533 649 l 533 411 l 315 411 l 315 251 l 558 251 l 558 0 l 33 0 m 79 1314 l 307 1314 l 386 1086 l 224 1086 l 79 1314 z "},"É":{"ha":582,"x_min":33,"x_max":558,"o":"m 33 0 l 33 1047 l 558 1047 l 558 801 l 315 801 l 315 649 l 533 649 l 533 411 l 315 411 l 315 251 l 558 251 l 558 0 l 33 0 m 174 1086 l 253 1314 l 481 1314 l 336 1086 l 174 1086 z "},"Ê":{"ha":582,"x_min":33,"x_max":558,"o":"m 33 0 l 33 1047 l 558 1047 l 558 801 l 315 801 l 315 649 l 533 649 l 533 411 l 315 411 l 315 251 l 558 251 l 558 0 l 33 0 m 40 1086 l 179 1314 l 407 1314 l 546 1086 l 368 1086 l 293 1206 l 218 1086 l 40 1086 z "},"Ë":{"ha":582,"x_min":33,"x_max":558,"o":"m 33 0 l 33 1047 l 558 1047 l 558 801 l 315 801 l 315 649 l 533 649 l 533 411 l 315 411 l 315 251 l 558 251 l 558 0 l 33 0 m 46 1200 q 79 1281 46 1247 q 158 1314 113 1314 q 239 1281 206 1314 q 272 1200 272 1247 q 238 1120 272 1154 q 158 1086 204 1086 q 79 1120 113 1086 q 46 1200 46 1154 m 340 1119 q 324 1136 340 1119 q 307 1200 307 1153 q 340 1281 307 1247 q 421 1314 374 1314 q 501 1280 468 1314 q 535 1199 535 1246 q 501 1119 535 1153 q 422 1086 468 1086 q 340 1119 374 1086 z "},"Ì":{"ha":349,"x_min":0,"x_max":315,"o":"m 0 1314 l 222 1314 l 290 1086 l 132 1086 l 0 1314 m 33 0 l 33 1047 l 315 1047 l 315 0 l 33 0 z "},"Í":{"ha":349,"x_min":33,"x_max":349,"o":"m 33 0 l 33 1047 l 315 1047 l 315 0 l 33 0 m 58 1086 l 128 1314 l 349 1314 l 217 1086 l 58 1086 z "},"Î":{"ha":349,"x_min":-54,"x_max":399,"o":"m -54 1086 l 85 1314 l 260 1314 l 399 1086 l 221 1086 l 172 1193 l 124 1086 l -54 1086 m 33 0 l 33 1047 l 315 1047 l 315 0 l 33 0 z "},"Ï":{"ha":349,"x_min":-64,"x_max":406,"o":"m -64 1200 q -31 1281 -64 1247 q 49 1314 3 1314 q 129 1281 96 1314 q 163 1200 163 1247 q 128 1120 163 1154 q 49 1086 94 1086 q -31 1120 3 1086 q -64 1200 -64 1154 m 33 0 l 33 1047 l 315 1047 l 315 0 l 33 0 m 211 1119 q 194 1136 211 1119 q 178 1200 178 1153 q 211 1281 178 1247 q 292 1314 244 1314 q 372 1280 339 1314 q 406 1199 406 1246 q 372 1119 406 1153 q 293 1086 339 1086 q 211 1119 244 1086 z "},"Ð":{"ha":814,"x_min":6,"x_max":793,"o":"m 6 456 l 6 618 l 69 618 l 69 1047 l 314 1047 q 670 903 547 1047 q 793 522 793 758 q 678 139 793 278 q 333 0 564 0 l 69 0 l 69 456 l 6 456 m 351 253 q 504 515 504 261 q 465 713 504 640 q 361 786 425 786 l 351 786 l 351 618 l 435 618 l 435 456 l 351 456 l 351 253 z "},"Ñ":{"ha":804,"x_min":33,"x_max":771,"o":"m 33 0 l 33 1047 l 303 1047 l 450 663 q 526 415 481 581 q 515 548 522 461 q 503 689 507 635 q 500 781 500 743 l 500 1047 l 771 1047 l 771 0 l 500 0 l 358 385 q 286 604 310 515 q 303 267 303 385 l 303 0 l 33 0 m 147 1086 q 306 1293 147 1293 q 404 1272 353 1293 l 451 1253 q 496 1242 482 1242 q 540 1299 536 1242 l 681 1299 l 681 1276 q 635 1141 681 1193 q 515 1089 589 1089 q 422 1115 496 1089 q 332 1142 349 1142 q 290 1086 292 1142 l 147 1086 z "},"Ò":{"ha":839,"x_min":21,"x_max":818,"o":"m 21 524 q 131 916 21 765 q 419 1067 240 1067 q 708 916 599 1067 q 818 524 818 765 q 708 131 818 281 q 419 -18 599 -18 q 131 131 240 -18 q 21 524 21 281 m 215 1314 l 443 1314 l 522 1086 l 360 1086 l 215 1314 m 342 730 q 328 693 342 730 q 314 524 314 657 q 342 318 314 390 q 419 246 369 246 q 497 318 469 246 q 525 524 525 390 q 497 730 525 657 q 419 803 469 803 q 342 730 369 803 z "},"Ó":{"ha":839,"x_min":21,"x_max":818,"o":"m 21 524 q 131 916 21 765 q 419 1067 240 1067 q 708 916 599 1067 q 818 524 818 765 q 708 131 818 281 q 419 -18 599 -18 q 131 131 240 -18 q 21 524 21 281 m 342 730 q 328 693 342 730 q 314 524 314 657 q 342 318 314 390 q 419 246 369 246 q 497 318 469 246 q 525 524 525 390 q 497 730 525 657 q 419 803 469 803 q 342 730 369 803 m 328 1086 l 407 1314 l 635 1314 l 490 1086 l 328 1086 z "},"Ô":{"ha":839,"x_min":21,"x_max":818,"o":"m 21 524 q 131 916 21 765 q 419 1067 240 1067 q 708 916 599 1067 q 818 524 818 765 q 708 131 818 281 q 419 -18 599 -18 q 131 131 240 -18 q 21 524 21 281 m 168 1086 l 307 1314 l 535 1314 l 674 1086 l 496 1086 l 421 1206 l 346 1086 l 168 1086 m 342 730 q 328 693 342 730 q 314 524 314 657 q 342 318 314 390 q 419 246 369 246 q 497 318 469 246 q 525 524 525 390 q 497 730 525 657 q 419 803 469 803 q 342 730 369 803 z "},"Õ":{"ha":839,"x_min":21,"x_max":818,"o":"m 21 524 q 131 916 21 765 q 419 1067 240 1067 q 708 916 599 1067 q 818 524 818 765 q 708 131 818 281 q 419 -18 599 -18 q 131 131 240 -18 q 21 524 21 281 m 149 1086 q 307 1293 149 1293 q 406 1272 354 1293 l 453 1253 q 497 1242 483 1242 q 542 1299 538 1242 l 682 1299 l 682 1276 q 636 1141 682 1193 q 517 1089 590 1089 q 424 1115 497 1089 q 333 1142 350 1142 q 292 1086 293 1142 l 149 1086 m 342 730 q 328 693 342 730 q 314 524 314 657 q 342 318 314 390 q 419 246 369 246 q 497 318 469 246 q 525 524 525 390 q 497 730 525 657 q 419 803 469 803 q 342 730 369 803 z "},"Ö":{"ha":839,"x_min":21,"x_max":818,"o":"m 21 524 q 131 916 21 765 q 419 1067 240 1067 q 708 916 599 1067 q 818 524 818 765 q 708 131 818 281 q 419 -18 599 -18 q 131 131 240 -18 q 21 524 21 281 m 175 1200 q 208 1281 175 1247 q 288 1314 242 1314 q 368 1281 335 1314 q 401 1200 401 1247 q 367 1120 401 1154 q 288 1086 333 1086 q 208 1120 242 1086 q 175 1200 175 1154 m 342 730 q 328 693 342 730 q 314 524 314 657 q 342 318 314 390 q 419 246 369 246 q 497 318 469 246 q 525 524 525 390 q 497 730 525 657 q 419 803 469 803 q 342 730 369 803 m 469 1119 q 453 1136 469 1119 q 436 1200 436 1153 q 469 1281 436 1247 q 550 1314 503 1314 q 631 1280 597 1314 q 664 1199 664 1246 q 631 1119 664 1153 q 551 1086 597 1086 q 469 1119 503 1086 z "},"×":{"ha":668,"x_min":0,"x_max":668,"o":"m 0 749 l 119 868 l 335 653 l 549 867 l 667 750 l 451 536 l 668 319 l 547 200 l 332 415 l 118 201 l 1 318 l 215 532 l 0 749 z "},"Ø":{"ha":838,"x_min":0,"x_max":838,"o":"m 0 49 l 96 182 q 18 524 18 322 q 128 916 18 765 q 417 1067 238 1067 q 663 967 563 1067 l 735 1067 l 838 994 l 740 861 q 815 524 815 722 q 706 131 815 281 q 417 -18 596 -18 q 171 81 269 -18 l 99 -18 l 0 49 m 311 481 l 493 732 q 417 803 467 803 q 339 730 367 803 q 311 524 311 657 l 311 481 m 340 314 q 417 246 367 246 q 494 318 467 246 q 522 524 522 390 q 521 561 522 549 l 340 314 z "},"Ù":{"ha":769,"x_min":29,"x_max":740,"o":"m 29 347 l 29 1047 l 313 1047 l 313 372 q 329 274 313 303 q 386 246 346 246 q 442 274 426 246 q 457 372 457 301 l 457 1047 l 740 1047 l 740 347 q 644 77 740 172 q 386 -18 549 -18 q 126 77 224 -18 q 29 347 29 172 m 172 1314 l 400 1314 l 479 1086 l 317 1086 l 172 1314 z "},"Ú":{"ha":769,"x_min":29,"x_max":740,"o":"m 29 347 l 29 1047 l 313 1047 l 313 372 q 329 274 313 303 q 386 246 346 246 q 442 274 426 246 q 457 372 457 301 l 457 1047 l 740 1047 l 740 347 q 644 77 740 172 q 386 -18 549 -18 q 126 77 224 -18 q 29 347 29 172 m 294 1086 l 374 1314 l 601 1314 l 457 1086 l 294 1086 z "},"Û":{"ha":769,"x_min":29,"x_max":740,"o":"m 29 347 l 29 1047 l 313 1047 l 313 372 q 329 274 313 303 q 386 246 346 246 q 442 274 426 246 q 457 372 457 301 l 457 1047 l 740 1047 l 740 347 q 644 77 740 172 q 386 -18 549 -18 q 126 77 224 -18 q 29 347 29 172 m 132 1086 l 271 1314 l 499 1314 l 638 1086 l 460 1086 l 385 1206 l 310 1086 l 132 1086 z "},"Ü":{"ha":769,"x_min":29,"x_max":740,"o":"m 29 347 l 29 1047 l 313 1047 l 313 372 q 329 274 313 303 q 386 246 346 246 q 442 274 426 246 q 457 372 457 301 l 457 1047 l 740 1047 l 740 347 q 644 77 740 172 q 386 -18 549 -18 q 126 77 224 -18 q 29 347 29 172 m 142 1200 q 175 1281 142 1247 q 254 1314 208 1314 q 335 1281 301 1314 q 368 1200 368 1247 q 334 1120 368 1154 q 254 1086 300 1086 q 175 1120 208 1086 q 142 1200 142 1154 m 436 1119 q 419 1136 436 1119 q 403 1200 403 1153 q 436 1281 403 1247 q 517 1314 469 1314 q 597 1280 564 1314 q 631 1199 631 1246 q 597 1119 631 1153 q 518 1086 564 1086 q 436 1119 469 1086 z "},"Ý":{"ha":786,"x_min":0,"x_max":786,"o":"m 0 1047 l 294 1047 l 346 892 q 394 724 371 818 q 442 892 421 832 l 493 1047 l 786 1047 l 543 443 l 543 0 l 260 0 l 260 443 l 0 1047 m 319 1086 l 399 1314 l 626 1314 l 482 1086 l 319 1086 z "},"Þ":{"ha":733,"x_min":33,"x_max":728,"o":"m 33 0 l 33 1047 l 315 1047 l 315 900 l 360 900 q 632 806 536 900 q 728 549 728 713 q 638 290 728 383 q 360 197 547 197 l 315 197 l 315 0 l 33 0 m 315 432 l 329 432 q 411 464 381 432 q 442 549 442 496 q 412 637 442 601 q 336 672 382 672 q 327 672 333 672 q 315 671 321 671 l 315 432 z "},"ß":{"ha":747,"x_min":33,"x_max":731,"o":"m 33 0 l 33 733 q 119 1059 33 967 q 368 1151 204 1151 q 598 1065 508 1151 q 688 851 688 979 q 647 716 688 772 q 540 642 607 660 q 672 537 614 613 q 731 360 731 461 q 647 92 731 200 q 438 -15 564 -15 q 375 -10 404 -15 l 375 204 q 446 360 446 218 q 375 517 446 503 l 375 732 q 429 822 429 732 q 368 910 429 910 q 319 890 336 910 q 303 815 303 869 l 303 0 l 33 0 z "},"à":{"ha":725,"x_min":21,"x_max":697,"o":"m 21 367 q 83 645 21 542 q 251 749 144 749 q 431 617 364 749 q 425 694 425 661 l 425 733 l 697 733 l 697 0 l 425 0 l 425 42 q 431 124 425 79 q 244 -15 360 -15 q 81 88 140 -15 q 21 367 21 190 m 192 1047 l 411 1047 l 485 815 l 329 815 l 192 1047 m 368 524 q 335 524 368 524 q 303 367 303 524 q 368 210 303 210 q 433 367 433 210 q 368 524 433 524 z "},"á":{"ha":725,"x_min":21,"x_max":697,"o":"m 21 367 q 83 645 21 542 q 251 749 144 749 q 431 617 364 749 q 425 694 425 661 l 425 733 l 697 733 l 697 0 l 425 0 l 425 42 q 431 124 425 79 q 244 -15 360 -15 q 81 88 140 -15 q 21 367 21 190 m 296 815 l 369 1047 l 590 1047 l 451 815 l 296 815 m 368 524 q 335 524 368 524 q 303 367 303 524 q 368 210 303 210 q 433 367 433 210 q 368 524 433 524 z "},"â":{"ha":725,"x_min":21,"x_max":697,"o":"m 21 367 q 83 645 21 542 q 251 749 144 749 q 431 617 364 749 q 425 694 425 661 l 425 733 l 697 733 l 697 0 l 425 0 l 425 42 q 431 124 425 79 q 244 -15 360 -15 q 81 88 140 -15 q 21 367 21 190 m 146 831 l 267 1047 l 513 1047 l 624 831 l 425 831 l 368 936 l 308 831 l 146 831 m 368 524 q 335 524 368 524 q 303 367 303 524 q 368 210 303 210 q 433 367 433 210 q 368 524 433 524 z "},"ã":{"ha":725,"x_min":21,"x_max":697,"o":"m 21 367 q 83 645 21 542 q 251 749 144 749 q 431 617 364 749 q 425 694 425 661 l 425 733 l 697 733 l 697 0 l 425 0 l 425 42 q 431 124 425 79 q 244 -15 360 -15 q 81 88 140 -15 q 21 367 21 190 m 118 836 q 160 990 118 936 q 278 1043 201 1043 q 376 1021 322 1043 l 424 1001 q 468 990 454 990 q 513 1047 508 990 l 653 1047 l 653 1025 q 608 890 653 942 q 488 839 563 839 q 369 871 440 839 q 303 892 325 892 q 261 836 265 892 l 118 836 m 368 524 q 335 524 368 524 q 303 367 303 524 q 368 210 303 210 q 433 367 433 210 q 368 524 433 524 z "},"ä":{"ha":725,"x_min":21,"x_max":697,"o":"m 21 367 q 83 645 21 542 q 251 749 144 749 q 431 617 364 749 q 425 694 425 661 l 425 733 l 697 733 l 697 0 l 425 0 l 425 42 q 431 124 425 79 q 244 -15 360 -15 q 81 88 140 -15 q 21 367 21 190 m 180 859 q 164 875 180 859 q 147 940 147 892 q 180 1022 147 989 q 261 1056 213 1056 q 342 1022 310 1056 q 375 940 375 989 q 342 859 375 892 q 261 826 310 826 q 180 859 213 826 m 368 524 q 335 524 368 524 q 303 367 303 524 q 368 210 303 210 q 433 367 433 210 q 368 524 433 524 m 459 859 q 443 875 459 859 q 426 940 426 892 q 459 1022 426 989 q 540 1056 492 1056 q 622 1022 589 1056 q 654 940 654 989 q 622 859 654 892 q 540 826 589 826 q 459 859 492 826 z "},"å":{"ha":725,"x_min":21,"x_max":697,"o":"m 21 367 q 83 645 21 542 q 251 749 144 749 q 431 617 364 749 q 425 694 425 661 l 425 733 l 697 733 l 697 0 l 425 0 l 425 42 q 431 124 425 79 q 244 -15 360 -15 q 81 88 140 -15 q 21 367 21 190 m 296 809 q 274 831 296 809 q 251 915 251 853 q 295 1022 251 978 q 401 1067 339 1067 q 508 1022 464 1067 q 553 914 553 976 q 508 809 553 853 q 403 765 464 765 q 296 809 340 765 m 368 524 q 335 524 368 524 q 303 367 303 524 q 368 210 303 210 q 433 367 433 210 q 368 524 433 524 m 338 915 q 356 870 338 889 q 401 851 374 851 q 446 870 428 851 q 464 915 464 889 q 446 962 464 943 q 401 981 428 981 q 356 962 374 981 q 338 915 338 943 z "},"æ":{"ha":1113,"x_min":21,"x_max":1092,"o":"m 92 56 q 56 91 92 56 q 21 238 21 126 q 90 413 21 349 q 281 478 160 478 q 440 411 374 478 l 440 454 q 397 524 440 497 q 281 551 354 551 q 101 514 185 551 l 101 717 q 321 749 221 749 q 556 688 454 749 q 753 749 640 749 q 999 646 906 749 q 1092 367 1092 543 q 1091 338 1092 358 q 1090 310 1090 318 l 679 310 q 702 222 682 253 q 753 190 722 190 q 815 244 800 190 l 1078 236 q 968 55 1061 125 q 753 -15 875 -15 q 616 13 688 -15 q 515 81 544 40 q 281 -15 435 -15 q 92 56 163 -15 m 306 303 q 296 289 306 303 q 286 238 286 275 q 305 174 286 200 q 356 147 324 147 q 406 174 388 147 q 425 238 425 200 q 406 303 425 275 q 356 331 386 331 q 306 303 325 331 m 679 447 l 826 447 q 753 543 814 543 q 679 447 692 543 z "},"ç":{"ha":451,"x_min":21,"x_max":424,"o":"m 21 367 q 119 639 21 529 q 368 749 218 749 q 424 744 386 749 l 424 499 q 399 503 414 503 q 330 465 357 503 q 303 367 303 426 q 330 268 303 307 q 399 229 357 229 q 424 233 414 229 l 424 -11 q 350 -15 374 -15 q 113 94 204 -15 q 21 367 21 203 m 115 -247 l 269 -54 l 397 -137 l 219 -322 l 115 -247 z "},"è":{"ha":721,"x_min":21,"x_max":700,"o":"m 115 90 q 68 142 115 90 q 21 367 21 194 q 115 644 21 539 q 361 749 210 749 q 607 646 514 749 q 700 367 700 543 q 699 338 700 358 q 699 310 699 318 l 288 310 q 310 222 290 253 q 361 190 331 190 q 424 244 408 190 l 686 236 q 576 55 669 125 q 361 -15 483 -15 q 115 90 210 -15 m 164 1047 l 383 1047 l 457 815 l 301 815 l 164 1047 m 288 447 l 435 447 q 361 543 422 543 q 288 447 300 543 z "},"é":{"ha":721,"x_min":21,"x_max":700,"o":"m 115 90 q 68 142 115 90 q 21 367 21 194 q 115 644 21 539 q 361 749 210 749 q 607 646 514 749 q 700 367 700 543 q 699 338 700 358 q 699 310 699 318 l 288 310 q 310 222 290 253 q 361 190 331 190 q 424 244 408 190 l 686 236 q 576 55 669 125 q 361 -15 483 -15 q 115 90 210 -15 m 263 815 l 336 1047 l 557 1047 l 418 815 l 263 815 m 288 447 l 435 447 q 361 543 422 543 q 288 447 300 543 z "},"ê":{"ha":721,"x_min":21,"x_max":700,"o":"m 115 90 q 68 142 115 90 q 21 367 21 194 q 115 644 21 539 q 361 749 210 749 q 607 646 514 749 q 700 367 700 543 q 699 338 700 358 q 699 310 699 318 l 288 310 q 310 222 290 253 q 361 190 331 190 q 424 244 408 190 l 686 236 q 576 55 669 125 q 361 -15 483 -15 q 115 90 210 -15 m 118 831 l 239 1047 l 485 1047 l 596 831 l 397 831 l 340 936 l 281 831 l 118 831 m 288 447 l 435 447 q 361 543 422 543 q 288 447 300 543 z "},"ë":{"ha":721,"x_min":21,"x_max":700,"o":"m 115 90 q 68 142 115 90 q 21 367 21 194 q 115 644 21 539 q 361 749 210 749 q 607 646 514 749 q 700 367 700 543 q 699 338 700 358 q 699 310 699 318 l 288 310 q 310 222 290 253 q 361 190 331 190 q 424 244 408 190 l 686 236 q 576 55 669 125 q 361 -15 483 -15 q 115 90 210 -15 m 137 859 q 120 875 137 859 q 104 940 104 892 q 137 1022 104 989 q 218 1056 169 1056 q 299 1022 267 1056 q 332 940 332 989 q 299 859 332 892 q 218 826 267 826 q 137 859 169 826 m 288 447 l 435 447 q 361 543 422 543 q 288 447 300 543 m 416 859 q 400 875 416 859 q 383 940 383 892 q 416 1022 383 989 q 497 1056 449 1056 q 578 1022 546 1056 q 611 940 611 989 q 578 859 611 892 q 497 826 546 826 q 416 859 449 826 z "},"ì":{"ha":385,"x_min":0,"x_max":335,"o":"m 0 1047 l 219 1047 l 293 815 l 138 815 l 0 1047 m 63 0 l 63 733 l 335 733 l 335 0 l 63 0 z "},"í":{"ha":374,"x_min":50,"x_max":386,"o":"m 50 0 l 50 733 l 322 733 l 322 0 l 50 0 m 93 815 l 167 1047 l 386 1047 l 249 815 l 93 815 z "},"î":{"ha":374,"x_min":-42,"x_max":415,"o":"m -42 831 l 68 1047 l 313 1047 l 415 831 l 215 831 l 171 936 l 119 831 l -42 831 m 50 0 l 50 733 l 322 733 l 322 0 l 50 0 z "},"ï":{"ha":374,"x_min":-26,"x_max":400,"o":"m 3 876 q -12 891 3 876 q -26 947 -26 906 q 3 1018 -26 989 q 74 1047 32 1047 q 144 1018 115 1047 q 174 947 174 989 q 144 876 174 906 q 74 847 115 847 q 3 876 32 847 m 50 0 l 50 733 l 322 733 l 322 0 l 50 0 m 229 876 q 215 891 229 876 q 200 947 200 906 q 229 1018 200 989 q 300 1047 258 1047 q 371 1018 342 1047 q 400 947 400 989 q 371 876 400 906 q 300 847 342 847 q 229 876 258 847 z "},"ð":{"ha":725,"x_min":21,"x_max":704,"o":"m 21 365 q 113 641 21 533 q 349 749 204 749 q 275 874 314 828 l 104 779 l 49 878 l 192 957 l 168 972 q 43 1039 131 996 l 114 1149 q 350 1044 231 1118 l 529 1144 l 585 1042 l 454 969 q 704 389 704 751 q 615 90 704 196 q 361 -15 526 -15 q 112 88 203 -15 q 21 365 21 190 m 306 495 q 295 471 306 495 q 285 365 285 447 q 306 236 285 283 q 361 189 328 189 q 417 240 396 189 q 439 363 439 292 q 418 494 439 446 q 361 543 397 543 q 306 495 328 543 z "},"ñ":{"ha":701,"x_min":28,"x_max":674,"o":"m 28 0 l 28 733 l 300 733 l 300 692 q 294 588 300 636 q 378 709 333 669 q 486 749 424 749 q 625 682 576 749 q 674 500 674 615 l 674 0 l 401 0 l 401 383 q 391 458 401 438 q 354 478 381 478 q 300 369 300 478 l 300 0 l 28 0 m 83 836 q 125 990 83 936 q 243 1043 167 1043 q 342 1021 288 1043 l 389 1001 q 433 990 419 990 q 478 1047 474 990 l 618 1047 l 618 1025 q 573 890 618 942 q 453 839 528 839 q 335 871 406 839 q 268 892 292 892 q 226 836 231 892 l 83 836 z "},"ò":{"ha":714,"x_min":17,"x_max":697,"o":"m 110 89 q 63 141 110 89 q 17 367 17 193 q 110 644 17 540 q 357 749 203 749 q 604 644 511 749 q 697 367 697 540 q 604 89 697 193 q 357 -15 511 -15 q 110 89 203 -15 m 160 1047 l 379 1047 l 453 815 l 297 815 l 160 1047 m 301 498 q 291 475 301 498 q 281 367 281 451 q 301 235 281 282 q 357 189 322 189 q 413 235 392 189 q 435 367 435 282 q 413 498 435 451 q 357 544 392 544 q 301 498 322 544 z "},"ó":{"ha":714,"x_min":17,"x_max":697,"o":"m 110 89 q 63 141 110 89 q 17 367 17 193 q 110 644 17 540 q 357 749 203 749 q 604 644 511 749 q 697 367 697 540 q 604 89 697 193 q 357 -15 511 -15 q 110 89 203 -15 m 264 815 l 338 1047 l 558 1047 l 419 815 l 264 815 m 301 498 q 291 475 301 498 q 281 367 281 451 q 301 235 281 282 q 357 189 322 189 q 413 235 392 189 q 435 367 435 282 q 413 498 435 451 q 357 544 392 544 q 301 498 322 544 z "},"ô":{"ha":714,"x_min":17,"x_max":697,"o":"m 110 89 q 63 141 110 89 q 17 367 17 193 q 110 644 17 540 q 357 749 203 749 q 604 644 511 749 q 697 367 697 540 q 604 89 697 193 q 357 -15 511 -15 q 110 89 203 -15 m 119 831 l 240 1047 l 486 1047 l 597 831 l 399 831 l 342 936 l 282 831 l 119 831 m 301 498 q 291 475 301 498 q 281 367 281 451 q 301 235 281 282 q 357 189 322 189 q 413 235 392 189 q 435 367 435 282 q 413 498 435 451 q 357 544 392 544 q 301 498 322 544 z "},"õ":{"ha":714,"x_min":17,"x_max":697,"o":"m 110 89 q 63 141 110 89 q 17 367 17 193 q 110 644 17 540 q 357 749 203 749 q 604 644 511 749 q 697 367 697 540 q 604 89 697 193 q 357 -15 511 -15 q 110 89 203 -15 m 96 836 q 138 990 96 936 q 256 1043 179 1043 q 354 1021 300 1043 l 401 1001 q 446 990 432 990 q 490 1047 486 990 l 631 1047 l 631 1025 q 585 890 631 942 q 465 839 540 839 q 347 871 418 839 q 281 892 303 892 q 239 836 243 892 l 96 836 m 301 498 q 291 475 301 498 q 281 367 281 451 q 301 235 281 282 q 357 189 322 189 q 413 235 392 189 q 435 367 435 282 q 413 498 435 451 q 357 544 392 544 q 301 498 322 544 z "},"ö":{"ha":714,"x_min":17,"x_max":697,"o":"m 110 89 q 63 141 110 89 q 17 367 17 193 q 110 644 17 540 q 357 749 203 749 q 604 644 511 749 q 697 367 697 540 q 604 89 697 193 q 357 -15 511 -15 q 110 89 203 -15 m 138 859 q 122 875 138 859 q 106 940 106 892 q 138 1022 106 989 q 219 1056 171 1056 q 301 1022 268 1056 q 333 940 333 989 q 301 859 333 892 q 219 826 268 826 q 138 859 171 826 m 301 498 q 291 475 301 498 q 281 367 281 451 q 301 235 281 282 q 357 189 322 189 q 413 235 392 189 q 435 367 435 282 q 413 498 435 451 q 357 544 392 544 q 301 498 322 544 m 417 859 q 401 875 417 859 q 385 940 385 892 q 417 1022 385 989 q 499 1056 450 1056 q 580 1022 547 1056 q 613 940 613 989 q 580 859 613 892 q 499 826 547 826 q 417 859 450 826 z "},"÷":{"ha":713,"x_min":0,"x_max":713,"o":"m 0 453 l 0 615 l 713 615 l 713 453 l 0 453 m 265 149 q 247 167 265 149 q 228 240 228 186 q 265 332 228 294 q 356 369 301 369 q 448 331 410 369 q 486 238 486 292 q 449 149 486 186 q 357 111 411 111 q 265 149 303 111 m 228 829 q 265 920 228 883 q 356 957 301 957 q 449 919 411 957 q 486 825 486 882 q 449 737 486 775 q 357 699 411 699 q 265 738 303 699 q 228 829 228 778 z "},"ø":{"ha":715,"x_min":17,"x_max":699,"o":"m 17 367 q 110 644 17 540 q 357 749 203 749 q 519 711 442 749 l 592 815 l 699 742 l 618 626 q 697 367 697 524 q 604 89 697 193 q 357 -15 511 -15 q 199 19 269 -15 l 124 -87 l 18 -11 l 97 103 q 17 367 17 206 m 301 498 q 291 475 301 498 q 281 367 281 451 q 301 235 281 282 q 357 189 322 189 q 413 235 392 189 q 435 367 435 282 q 413 498 435 451 q 357 544 392 544 q 301 498 322 544 z "},"ù":{"ha":715,"x_min":28,"x_max":688,"o":"m 28 283 l 28 733 l 300 733 l 300 319 q 312 236 300 261 q 358 211 324 211 q 404 236 393 211 q 415 319 415 261 l 415 733 l 688 733 l 688 283 q 599 65 688 144 q 358 -15 510 -15 q 117 65 207 -15 q 28 283 28 144 m 154 1047 l 374 1047 l 447 815 l 292 815 l 154 1047 z "},"ú":{"ha":715,"x_min":28,"x_max":688,"o":"m 28 283 l 28 733 l 300 733 l 300 319 q 312 236 300 261 q 358 211 324 211 q 404 236 393 211 q 415 319 415 261 l 415 733 l 688 733 l 688 283 q 599 65 688 144 q 358 -15 510 -15 q 117 65 207 -15 q 28 283 28 144 m 274 815 l 347 1047 l 568 1047 l 429 815 l 274 815 z "},"û":{"ha":715,"x_min":28,"x_max":688,"o":"m 28 283 l 28 733 l 300 733 l 300 319 q 312 236 300 261 q 358 211 324 211 q 404 236 393 211 q 415 319 415 261 l 415 733 l 688 733 l 688 283 q 599 65 688 144 q 358 -15 510 -15 q 117 65 207 -15 q 28 283 28 144 m 119 831 l 240 1047 l 486 1047 l 597 831 l 399 831 l 342 936 l 282 831 l 119 831 z "},"ü":{"ha":715,"x_min":28,"x_max":688,"o":"m 28 283 l 28 733 l 300 733 l 300 319 q 312 236 300 261 q 358 211 324 211 q 404 236 393 211 q 415 319 415 261 l 415 733 l 688 733 l 688 283 q 599 65 688 144 q 358 -15 510 -15 q 117 65 207 -15 q 28 283 28 144 m 137 859 q 120 875 137 859 q 104 940 104 892 q 137 1022 104 989 q 218 1056 169 1056 q 299 1022 267 1056 q 332 940 332 989 q 299 859 332 892 q 218 826 267 826 q 137 859 169 826 m 416 859 q 400 875 416 859 q 383 940 383 892 q 416 1022 383 989 q 497 1056 449 1056 q 578 1022 546 1056 q 611 940 611 989 q 578 859 611 892 q 497 826 546 826 q 416 859 449 826 z "},"ý":{"ha":717,"x_min":0,"x_max":717,"o":"m 0 733 l 271 733 l 322 522 q 356 321 333 482 q 390 522 371 440 l 443 733 l 717 733 l 379 -307 l 110 -307 l 219 28 l 0 733 m 279 815 l 353 1047 l 574 1047 l 435 815 l 279 815 z "},"þ":{"ha":726,"x_min":33,"x_max":706,"o":"m 33 -326 l 33 1146 l 306 1146 l 306 733 q 300 629 306 686 q 372 722 335 696 q 468 749 410 749 q 640 642 574 749 q 706 365 706 536 q 643 88 706 192 q 472 -15 581 -15 q 300 100 374 -15 q 306 -22 306 43 l 306 -326 l 33 -326 m 297 371 q 358 214 297 214 q 425 374 425 214 q 361 525 425 525 q 297 371 297 525 z "},"ÿ":{"ha":717,"x_min":0,"x_max":717,"o":"m 0 733 l 271 733 l 322 522 q 356 321 333 482 q 390 522 371 440 l 443 733 l 717 733 l 379 -307 l 110 -307 l 219 28 l 0 733 m 137 859 q 120 875 137 859 q 104 940 104 892 q 137 1022 104 989 q 218 1056 169 1056 q 299 1022 267 1056 q 332 940 332 989 q 299 859 332 892 q 218 826 267 826 q 137 859 169 826 m 416 859 q 400 875 416 859 q 383 940 383 892 q 416 1022 383 989 q 497 1056 449 1056 q 578 1022 546 1056 q 611 940 611 989 q 578 859 611 892 q 497 826 546 826 q 416 859 449 826 z "},"Ā":{"ha":768,"x_min":-25,"x_max":793,"o":"m -25 0 l 217 1047 l 553 1047 l 793 0 l 501 0 l 478 133 l 290 133 l 267 0 l -25 0 m 139 1125 l 139 1275 l 631 1275 l 631 1125 l 139 1125 m 324 357 l 444 357 l 404 639 q 399 675 401 654 q 393 732 397 696 q 385 797 389 768 q 376 732 381 768 q 370 675 372 696 q 365 639 368 654 l 324 357 z "},"Ă":{"ha":768,"x_min":-25,"x_max":793,"o":"m -25 0 l 217 1047 l 553 1047 l 793 0 l 501 0 l 478 133 l 290 133 l 267 0 l -25 0 m 139 1314 l 264 1314 q 385 1208 296 1208 q 506 1314 474 1208 l 631 1314 q 556 1146 619 1206 q 385 1086 493 1086 q 213 1146 276 1086 q 139 1314 150 1206 m 324 357 l 444 357 l 404 639 q 399 675 401 654 q 393 732 397 696 q 385 797 389 768 q 376 732 381 768 q 370 675 372 696 q 365 639 368 654 l 324 357 z "},"Ą":{"ha":768,"x_min":-25,"x_max":793,"o":"m -25 0 l 217 1047 l 553 1047 l 793 0 l 725 0 q 599 -37 642 1 q 556 -121 556 -76 q 576 -172 556 -149 q 628 -194 597 -194 q 722 -172 640 -194 l 675 -321 q 596 -339 629 -339 q 454 -294 511 -339 q 397 -181 397 -250 q 501 0 397 -87 l 478 133 l 290 133 l 267 0 l -25 0 m 324 357 l 444 357 l 404 639 q 401 658 404 640 q 394 715 399 676 q 385 797 389 754 q 367 639 371 664 l 324 357 z "},"Ć":{"ha":653,"x_min":21,"x_max":646,"o":"m 21 524 q 147 917 21 767 q 483 1067 274 1067 q 624 1040 547 1067 l 624 742 q 494 804 558 804 q 358 730 406 804 q 310 524 310 656 q 356 325 310 396 q 489 254 403 254 q 636 322 564 254 l 619 19 q 450 -18 525 -18 q 140 128 260 -18 q 21 524 21 274 m 339 1086 l 418 1314 l 646 1314 l 501 1086 l 339 1086 z "},"Ĉ":{"ha":653,"x_min":21,"x_max":692,"o":"m 21 524 q 147 917 21 767 q 483 1067 274 1067 q 624 1040 547 1067 l 624 742 q 494 804 558 804 q 358 730 406 804 q 310 524 310 656 q 356 325 310 396 q 489 254 403 254 q 636 322 564 254 l 619 19 q 450 -18 525 -18 q 140 128 260 -18 q 21 524 21 274 m 186 1086 l 325 1314 l 553 1314 l 692 1086 l 514 1086 l 439 1206 l 364 1086 l 186 1086 z "},"Ċ":{"ha":653,"x_min":21,"x_max":636,"o":"m 21 524 q 147 917 21 767 q 483 1067 274 1067 q 624 1040 547 1067 l 624 742 q 494 804 558 804 q 358 730 406 804 q 310 524 310 656 q 356 325 310 396 q 489 254 403 254 q 636 322 564 254 l 619 19 q 450 -18 525 -18 q 140 128 260 -18 q 21 524 21 274 m 319 1218 q 358 1315 319 1276 q 456 1353 397 1353 q 551 1313 511 1353 q 592 1215 592 1272 q 551 1120 592 1160 q 457 1081 511 1081 q 359 1122 399 1081 q 319 1218 319 1163 z "},"Č":{"ha":653,"x_min":21,"x_max":703,"o":"m 21 524 q 147 917 21 767 q 483 1067 274 1067 q 624 1040 547 1067 l 624 742 q 494 804 558 804 q 358 730 406 804 q 310 524 310 656 q 356 325 310 396 q 489 254 403 254 q 636 322 564 254 l 619 19 q 450 -18 525 -18 q 140 128 260 -18 q 21 524 21 274 m 197 1314 l 375 1314 l 450 1194 l 525 1314 l 703 1314 l 564 1086 l 336 1086 l 197 1314 z "},"Ď":{"ha":789,"x_min":44,"x_max":768,"o":"m 44 0 l 44 1047 l 289 1047 q 645 903 522 1047 q 768 522 768 758 q 653 139 768 278 q 308 0 539 0 l 44 0 m 46 1314 l 224 1314 l 299 1194 l 374 1314 l 551 1314 l 413 1086 l 185 1086 l 46 1314 m 326 253 q 479 515 479 261 q 440 713 479 640 q 336 786 400 786 l 326 786 l 326 253 z "},"Đ":{"ha":814,"x_min":6,"x_max":793,"o":"m 6 456 l 6 618 l 69 618 l 69 1047 l 314 1047 q 670 903 547 1047 q 793 522 793 758 q 678 139 793 278 q 333 0 564 0 l 69 0 l 69 456 l 6 456 m 351 253 q 504 515 504 261 q 465 713 504 640 q 361 786 425 786 l 351 786 l 351 618 l 435 618 l 435 456 l 351 456 l 351 253 z "},"Ē":{"ha":582,"x_min":33,"x_max":558,"o":"m 33 0 l 33 1047 l 558 1047 l 558 801 l 315 801 l 315 649 l 533 649 l 533 411 l 315 411 l 315 251 l 558 251 l 558 0 l 33 0 m 47 1125 l 47 1275 l 539 1275 l 539 1125 l 47 1125 z "},"Ė":{"ha":582,"x_min":33,"x_max":558,"o":"m 33 0 l 33 1047 l 558 1047 l 558 801 l 315 801 l 315 649 l 533 649 l 533 411 l 315 411 l 315 251 l 558 251 l 558 0 l 33 0 m 147 1218 q 186 1315 147 1276 q 283 1353 225 1353 q 379 1313 339 1353 q 419 1215 419 1272 q 379 1120 419 1160 q 285 1081 339 1081 q 187 1122 226 1081 q 147 1218 147 1163 z "},"Ę":{"ha":582,"x_min":33,"x_max":558,"o":"m 33 0 l 33 1047 l 558 1047 l 558 801 l 315 801 l 315 649 l 533 649 l 533 411 l 315 411 l 315 251 l 558 251 l 558 0 q 428 -37 479 -1 q 378 -126 378 -74 q 454 -194 378 -194 q 525 -182 481 -194 l 500 -322 q 419 -339 458 -339 q 276 -294 335 -339 q 218 -182 218 -249 q 332 0 218 -82 l 33 0 z "},"Ě":{"ha":582,"x_min":33,"x_max":558,"o":"m 33 0 l 33 1047 l 558 1047 l 558 801 l 315 801 l 315 649 l 533 649 l 533 411 l 315 411 l 315 251 l 558 251 l 558 0 l 33 0 m 42 1314 l 219 1314 l 294 1194 l 369 1314 l 547 1314 l 408 1086 l 181 1086 l 42 1314 z "},"Ĝ":{"ha":826,"x_min":21,"x_max":806,"o":"m 128 126 q 74 199 128 126 q 21 524 21 271 q 129 922 21 776 q 425 1067 238 1067 q 783 807 671 1067 l 510 707 q 417 814 494 814 q 310 524 310 814 q 417 233 310 233 q 488 274 461 233 q 515 385 515 315 l 414 385 l 414 606 l 806 606 l 806 563 q 710 118 806 254 q 425 -18 615 -18 q 128 126 235 -18 m 175 1086 l 314 1314 l 542 1314 l 681 1086 l 503 1086 l 428 1206 l 353 1086 l 175 1086 z "},"Ğ":{"ha":826,"x_min":21,"x_max":806,"o":"m 128 126 q 74 199 128 126 q 21 524 21 271 q 129 922 21 776 q 425 1067 238 1067 q 783 807 671 1067 l 510 707 q 417 814 494 814 q 310 524 310 814 q 417 233 310 233 q 488 274 461 233 q 515 385 515 315 l 414 385 l 414 606 l 806 606 l 806 563 q 710 118 806 254 q 425 -18 615 -18 q 128 126 235 -18 m 172 1314 l 297 1314 q 418 1208 329 1208 q 539 1314 507 1208 l 664 1314 q 590 1146 653 1206 q 418 1086 526 1086 q 247 1146 310 1086 q 172 1314 183 1206 z "},"ğ":{"ha":725,"x_min":21,"x_max":697,"o":"m 21 367 q 84 642 21 536 q 257 749 147 749 q 345 722 307 749 q 428 629 383 696 q 424 692 424 683 l 424 733 l 697 733 l 697 -21 q 610 -256 697 -172 q 360 -340 522 -340 q 130 -276 208 -340 q 32 -75 51 -212 l 307 -75 q 367 -137 311 -137 q 428 -31 428 -137 l 428 93 q 258 -10 361 -10 q 87 94 153 -10 q 21 367 21 199 m 125 1067 l 235 1067 q 285 1000 254 1018 q 376 982 315 982 q 461 1000 432 982 q 508 1067 490 1018 l 618 1067 q 374 833 594 833 q 201 895 267 833 q 125 1067 136 957 m 368 528 q 335 528 368 528 q 303 371 303 528 q 368 214 303 214 q 433 371 433 214 q 368 528 433 528 z "},"Ġ":{"ha":826,"x_min":21,"x_max":806,"o":"m 128 126 q 74 199 128 126 q 21 524 21 271 q 129 922 21 776 q 425 1067 238 1067 q 783 807 671 1067 l 510 707 q 417 814 494 814 q 310 524 310 814 q 417 233 310 233 q 488 274 461 233 q 515 385 515 315 l 414 385 l 414 606 l 806 606 l 806 563 q 710 118 806 254 q 425 -18 615 -18 q 128 126 235 -18 m 299 1218 q 338 1315 299 1276 q 435 1353 376 1353 q 531 1313 490 1353 q 571 1215 571 1272 q 531 1120 571 1160 q 436 1081 490 1081 q 338 1122 378 1081 q 299 1218 299 1163 z "},"Ģ":{"ha":826,"x_min":21,"x_max":806,"o":"m 128 126 q 74 199 128 126 q 21 524 21 271 q 129 922 21 776 q 425 1067 238 1067 q 783 807 671 1067 l 510 707 q 417 814 494 814 q 310 524 310 814 q 417 233 310 233 q 488 274 461 233 q 515 385 515 315 l 414 385 l 414 606 l 806 606 l 806 563 q 710 118 806 254 q 425 -18 615 -18 q 128 126 235 -18 m 324 -321 l 404 -178 l 340 -178 l 340 -28 l 528 -28 l 528 -169 l 432 -321 l 324 -321 z "},"Ĥ":{"ha":767,"x_min":33,"x_max":733,"o":"m 33 0 l 33 1047 l 315 1047 l 315 676 l 451 676 l 451 1047 l 733 1047 l 733 0 l 451 0 l 451 421 l 315 421 l 315 0 l 33 0 m 143 1086 l 282 1314 l 510 1314 l 649 1086 l 471 1086 l 396 1206 l 321 1086 l 143 1086 z "},"Ħ":{"ha":767,"x_min":33,"x_max":733,"o":"m 33 0 l 33 1047 l 315 1047 l 315 938 l 451 938 l 451 1047 l 733 1047 l 733 0 l 451 0 l 451 421 l 315 421 l 315 0 l 33 0 m 315 676 l 451 676 l 451 785 l 315 785 l 315 676 z "},"Ĩ":{"ha":349,"x_min":-68,"x_max":415,"o":"m -68 1086 q -27 1239 -68 1185 q 71 1293 14 1293 q 160 1267 110 1293 q 235 1242 211 1242 q 268 1258 253 1242 q 283 1299 283 1275 l 415 1299 l 415 1276 q 374 1140 415 1192 q 276 1089 332 1089 q 193 1115 246 1089 q 115 1142 140 1142 q 82 1126 97 1142 q 67 1086 67 1110 l -68 1086 m 33 0 l 33 1047 l 315 1047 l 315 0 l 33 0 z "},"Ī":{"ha":349,"x_min":-29,"x_max":376,"o":"m -29 1125 l -29 1276 l 376 1276 l 376 1125 l -29 1125 m 33 0 l 33 1047 l 315 1047 l 315 0 l 33 0 z "},"Į":{"ha":349,"x_min":-72,"x_max":315,"o":"m -72 -178 q 33 0 -72 -87 l 33 1047 l 315 1047 l 315 0 l 247 0 q 131 -40 181 0 q 82 -128 82 -79 q 105 -178 82 -161 q 161 -194 128 -194 q 256 -172 208 -194 l 218 -322 q 129 -339 176 -339 q -16 -293 40 -339 q -72 -178 -72 -247 z "},"İ":{"ha":349,"x_min":33,"x_max":315,"o":"m 33 0 l 33 1047 l 315 1047 l 315 0 l 33 0 m 39 1218 q 78 1315 39 1276 q 175 1353 117 1353 q 271 1313 231 1353 q 311 1215 311 1272 q 271 1120 311 1160 q 176 1081 231 1081 q 78 1122 118 1081 q 39 1218 39 1163 z "},"ı":{"ha":339,"x_min":33,"x_max":306,"o":"m 33 0 l 33 733 l 306 733 l 306 0 l 33 0 z "},"Ĵ":{"ha":538,"x_min":25,"x_max":578,"o":"m 25 15 l 25 308 q 139 246 72 246 q 225 376 225 246 l 225 1047 l 508 1047 l 508 319 q 210 -18 508 -18 q 25 15 128 -18 m 72 1086 l 211 1314 l 439 1314 l 578 1086 l 400 1086 l 325 1206 l 250 1086 l 72 1086 z "},"Ķ":{"ha":776,"x_min":33,"x_max":801,"o":"m 33 0 l 33 1047 l 315 1047 l 315 692 q 308 599 315 651 l 482 1047 l 774 1047 l 547 542 l 801 0 l 503 0 l 308 483 q 315 375 315 421 l 315 0 l 33 0 m 294 -321 l 375 -178 l 311 -178 l 311 -28 l 499 -28 l 499 -169 l 403 -321 l 294 -321 z "},"ĸ":{"ha":742,"x_min":33,"x_max":742,"o":"m 33 0 l 33 733 l 306 733 l 306 389 q 347 503 319 432 l 442 733 l 736 733 l 550 383 l 742 0 l 429 0 l 331 271 q 306 354 326 282 l 306 0 l 33 0 z "},"Ĺ":{"ha":536,"x_min":33,"x_max":528,"o":"m 33 0 l 33 1047 l 315 1047 l 315 251 l 528 251 l 528 0 l 33 0 m 76 1086 l 156 1314 l 383 1314 l 239 1086 l 76 1086 z "},"Ļ":{"ha":536,"x_min":33,"x_max":528,"o":"m 33 0 l 33 1047 l 315 1047 l 315 251 l 528 251 l 528 0 l 33 0 m 156 -321 l 236 -178 l 172 -178 l 172 -28 l 360 -28 l 360 -169 l 264 -321 l 156 -321 z "},"Ľ":{"ha":536,"x_min":33,"x_max":536,"o":"m 33 0 l 33 1047 l 315 1047 l 315 251 l 528 251 l 528 0 l 33 0 m 332 754 l 413 897 l 349 897 l 349 1047 l 536 1047 l 536 906 l 440 754 l 332 754 z "},"Ŀ":{"ha":649,"x_min":33,"x_max":635,"o":"m 33 0 l 33 1047 l 315 1047 l 315 251 l 528 251 l 528 0 l 33 0 m 363 575 q 401 672 363 633 q 499 710 440 710 q 594 669 554 710 q 635 572 635 629 q 594 477 635 517 q 500 438 554 438 q 402 478 442 438 q 363 575 363 519 z "},"Ł":{"ha":613,"x_min":25,"x_max":604,"o":"m 25 274 l 25 464 l 110 529 l 110 1047 l 392 1047 l 392 681 l 531 794 l 531 600 l 392 490 l 392 251 l 604 251 l 604 0 l 110 0 l 110 342 l 25 274 z "},"Ń":{"ha":804,"x_min":33,"x_max":771,"o":"m 33 0 l 33 1047 l 303 1047 l 450 663 q 526 415 481 581 q 515 548 522 461 q 503 689 507 635 q 500 781 500 743 l 500 1047 l 771 1047 l 771 0 l 500 0 l 358 385 q 286 604 310 515 q 303 267 303 385 l 303 0 l 33 0 m 289 1086 l 368 1314 l 596 1314 l 451 1086 l 289 1086 z "},"Ņ":{"ha":804,"x_min":33,"x_max":771,"o":"m 33 0 l 33 1047 l 303 1047 l 450 663 q 526 415 481 581 q 515 548 522 461 q 503 689 507 635 q 500 781 500 743 l 500 1047 l 771 1047 l 771 0 l 500 0 l 358 385 q 286 604 310 515 q 303 267 303 385 l 303 0 l 33 0 m 288 -321 l 368 -178 l 304 -178 l 304 -28 l 492 -28 l 492 -169 l 396 -321 l 288 -321 z "},"Ň":{"ha":804,"x_min":33,"x_max":771,"o":"m 33 0 l 33 1047 l 303 1047 l 450 663 q 526 415 481 581 q 515 548 522 461 q 503 689 507 635 q 500 781 500 743 l 500 1047 l 771 1047 l 771 0 l 500 0 l 358 385 q 286 604 310 515 q 303 267 303 385 l 303 0 l 33 0 m 154 1314 l 332 1314 l 407 1194 l 482 1314 l 660 1314 l 521 1086 l 293 1086 l 154 1314 z "},"Ŋ":{"ha":804,"x_min":33,"x_max":771,"o":"m 33 0 l 33 1047 l 303 1047 l 450 663 q 526 415 481 581 q 515 548 522 461 q 503 689 507 635 q 500 781 500 743 l 500 1047 l 771 1047 l 771 -72 q 717 -256 771 -192 q 554 -318 664 -319 l 457 -56 q 492 -37 478 -56 q 497 7 506 -18 l 358 385 q 286 604 310 515 q 303 267 303 385 l 303 0 l 33 0 z "},"Ō":{"ha":839,"x_min":21,"x_max":818,"o":"m 21 524 q 131 916 21 765 q 419 1067 240 1067 q 708 916 599 1067 q 818 524 818 765 q 708 131 818 281 q 419 -18 599 -18 q 131 131 240 -18 q 21 524 21 281 m 174 1125 l 174 1275 l 665 1275 l 665 1125 l 174 1125 m 342 730 q 328 693 342 730 q 314 524 314 657 q 342 318 314 390 q 419 246 369 246 q 497 318 469 246 q 525 524 525 390 q 497 730 525 657 q 419 803 469 803 q 342 730 369 803 z "},"Ő":{"ha":839,"x_min":21,"x_max":818,"o":"m 21 524 q 131 916 21 765 q 419 1067 240 1067 q 708 916 599 1067 q 818 524 818 765 q 708 131 818 281 q 419 -18 599 -18 q 131 131 240 -18 q 21 524 21 281 m 228 1086 l 301 1314 l 494 1314 l 368 1086 l 228 1086 m 342 730 q 328 693 342 730 q 314 524 314 657 q 342 318 314 390 q 419 246 369 246 q 497 318 469 246 q 525 524 525 390 q 497 730 525 657 q 419 803 469 803 q 342 730 369 803 m 465 1086 l 540 1314 l 733 1314 l 606 1086 l 465 1086 z "},"Œ":{"ha":1067,"x_min":21,"x_max":1043,"o":"m 21 524 q 131 916 21 765 q 419 1067 240 1067 q 532 1047 478 1067 l 1043 1047 l 1043 801 l 800 801 l 800 649 l 1018 649 l 1018 411 l 800 411 l 800 251 l 1043 251 l 1043 0 l 528 0 q 419 -18 474 -18 q 131 131 240 -18 q 21 524 21 281 m 342 730 q 328 693 342 730 q 314 524 314 657 q 342 318 314 390 q 419 246 369 246 q 497 318 469 246 q 525 524 525 390 q 497 730 525 657 q 419 803 469 803 q 342 730 369 803 z "},"œ":{"ha":1117,"x_min":21,"x_max":1096,"o":"m 114 89 q 67 141 114 89 q 21 367 21 193 q 114 644 21 540 q 361 749 207 749 q 560 688 475 749 q 757 749 644 749 q 1003 646 910 749 q 1096 367 1096 543 q 1095 338 1096 358 q 1094 310 1094 318 l 683 310 q 706 222 686 253 q 757 190 726 190 q 819 244 804 190 l 1082 236 q 972 55 1065 125 q 757 -15 879 -15 q 560 44 642 -15 q 361 -15 478 -15 q 114 89 207 -15 m 306 498 q 295 475 306 498 q 285 367 285 451 q 306 235 285 282 q 361 189 326 189 q 417 235 396 189 q 439 367 439 282 q 417 498 439 451 q 361 544 396 544 q 306 498 326 544 m 683 447 l 831 447 q 757 543 818 543 q 683 447 696 543 z "},"Ŕ":{"ha":753,"x_min":33,"x_max":778,"o":"m 33 0 l 33 1047 l 307 1047 q 626 954 525 1047 q 726 697 726 861 q 567 435 726 507 l 778 0 l 472 0 l 315 429 l 315 0 l 33 0 m 200 1086 l 279 1314 l 507 1314 l 363 1086 l 200 1086 m 315 567 l 335 567 q 419 599 390 567 q 449 692 449 632 q 419 783 449 751 q 335 815 390 815 l 315 815 l 315 567 z "},"Ŗ":{"ha":753,"x_min":33,"x_max":778,"o":"m 33 0 l 33 1047 l 307 1047 q 626 954 525 1047 q 726 697 726 861 q 567 435 726 507 l 778 0 l 472 0 l 315 429 l 315 0 l 33 0 m 263 -321 l 343 -178 l 279 -178 l 279 -28 l 467 -28 l 467 -169 l 371 -321 l 263 -321 m 315 567 l 335 567 q 419 599 390 567 q 449 692 449 632 q 419 783 449 751 q 335 815 390 815 l 315 815 l 315 567 z "},"Ř":{"ha":753,"x_min":33,"x_max":778,"o":"m 33 0 l 33 1047 l 307 1047 q 626 954 525 1047 q 726 697 726 861 q 567 435 726 507 l 778 0 l 472 0 l 315 429 l 315 0 l 33 0 m 51 1314 l 229 1314 l 304 1194 l 379 1314 l 557 1314 l 418 1086 l 190 1086 l 51 1314 m 315 567 l 335 567 q 419 599 390 567 q 449 692 449 632 q 419 783 449 751 q 335 815 390 815 l 315 815 l 315 567 z "},"Ś":{"ha":583,"x_min":21,"x_max":571,"o":"m 21 722 q 113 967 21 867 q 339 1067 206 1067 q 542 1013 439 1067 l 542 693 q 376 808 467 808 q 323 790 344 808 q 301 744 301 771 q 358 661 301 703 l 404 628 q 532 494 493 561 q 571 338 571 428 q 477 83 571 183 q 238 -18 383 -18 q 25 26 139 -18 l 25 354 q 206 240 110 240 q 265 260 242 240 q 288 308 288 279 q 238 390 288 350 l 192 426 q 60 566 100 497 q 21 722 21 635 m 215 1086 l 294 1314 l 522 1314 l 378 1086 l 215 1086 z "},"Ŝ":{"ha":583,"x_min":21,"x_max":571,"o":"m 21 722 q 113 967 21 867 q 339 1067 206 1067 q 542 1013 439 1067 l 542 693 q 376 808 467 808 q 323 790 344 808 q 301 744 301 771 q 358 661 301 703 l 404 628 q 532 494 493 561 q 571 338 571 428 q 477 83 571 183 q 238 -18 383 -18 q 25 26 139 -18 l 25 354 q 206 240 110 240 q 265 260 242 240 q 288 308 288 279 q 238 390 288 350 l 192 426 q 60 566 100 497 q 21 722 21 635 m 61 1086 l 200 1314 l 428 1314 l 567 1086 l 389 1086 l 314 1206 l 239 1086 l 61 1086 z "},"Ş":{"ha":583,"x_min":21,"x_max":571,"o":"m 21 722 q 113 967 21 867 q 339 1067 206 1067 q 542 1013 439 1067 l 542 693 q 376 808 467 808 q 323 790 344 808 q 301 744 301 771 q 358 661 301 703 l 404 628 q 532 494 493 561 q 571 338 571 428 q 477 83 571 183 q 238 -18 383 -18 q 25 26 139 -18 l 25 354 q 206 240 110 240 q 265 260 242 240 q 288 308 288 279 q 238 390 288 350 l 192 426 q 60 566 100 497 q 21 722 21 635 m 136 -304 l 168 -183 q 206 -218 181 -206 q 253 -231 231 -231 q 297 -215 278 -231 q 315 -175 315 -199 q 294 -134 315 -150 q 244 -118 274 -118 q 181 -136 214 -118 l 200 -64 q 288 -47 233 -47 q 398 -87 353 -47 q 443 -187 443 -126 q 392 -295 443 -251 q 268 -339 342 -339 q 136 -304 193 -339 z "},"Š":{"ha":583,"x_min":21,"x_max":572,"o":"m 21 722 q 113 967 21 867 q 339 1067 206 1067 q 542 1013 439 1067 l 542 693 q 376 808 467 808 q 323 790 344 808 q 301 744 301 771 q 358 661 301 703 l 404 628 q 532 494 493 561 q 571 338 571 428 q 477 83 571 183 q 238 -18 383 -18 q 25 26 139 -18 l 25 354 q 206 240 110 240 q 265 260 242 240 q 288 308 288 279 q 238 390 288 350 l 192 426 q 60 566 100 497 q 21 722 21 635 m 67 1314 l 244 1314 l 319 1194 l 394 1314 l 572 1314 l 433 1086 l 206 1086 l 67 1314 z "},"š":{"ha":564,"x_min":6,"x_max":558,"o":"m 6 61 l 100 263 q 239 188 171 188 q 292 225 292 188 q 221 283 292 258 q 28 499 28 351 q 114 678 28 607 q 329 749 200 749 q 547 689 438 749 l 456 494 q 343 554 399 554 q 294 522 294 554 q 313 487 294 500 q 378 453 331 474 q 518 365 478 410 q 558 242 558 321 q 475 57 558 129 q 265 -15 392 -15 q 145 -1 197 -15 q 6 61 93 14 m 69 1050 l 268 1050 l 324 944 l 385 1050 l 547 1050 l 426 833 l 181 833 l 69 1050 z "},"Ţ":{"ha":619,"x_min":8,"x_max":611,"o":"m 8 796 l 8 1047 l 611 1047 l 611 796 l 451 796 l 451 0 l 168 0 l 168 796 l 8 796 m 186 -318 l 267 -175 l 203 -175 l 203 -25 l 390 -25 l 390 -167 l 294 -318 l 186 -318 z "},"Ť":{"ha":619,"x_min":8,"x_max":611,"o":"m 8 796 l 8 1047 l 611 1047 l 611 796 l 451 796 l 451 0 l 168 0 l 168 796 l 8 796 m 71 1314 l 249 1314 l 324 1194 l 399 1314 l 576 1314 l 438 1086 l 210 1086 l 71 1314 z "},"Ŧ":{"ha":619,"x_min":8,"x_max":611,"o":"m 8 796 l 8 1047 l 611 1047 l 611 796 l 451 796 l 451 733 l 536 733 l 536 514 l 451 514 l 451 0 l 168 0 l 168 514 l 83 514 l 83 733 l 168 733 l 168 796 l 8 796 z "},"Ũ":{"ha":769,"x_min":29,"x_max":740,"o":"m 29 347 l 29 1047 l 313 1047 l 313 372 q 329 274 313 303 q 386 246 346 246 q 442 274 426 246 q 457 372 457 301 l 457 1047 l 740 1047 l 740 347 q 644 77 740 172 q 386 -18 549 -18 q 126 77 224 -18 q 29 347 29 172 m 119 1086 q 278 1293 119 1293 q 376 1272 325 1293 l 424 1253 q 468 1242 454 1242 q 513 1299 508 1242 l 653 1299 l 653 1276 q 607 1141 653 1193 q 488 1089 561 1089 q 394 1115 468 1089 q 304 1142 321 1142 q 263 1086 264 1142 l 119 1086 z "},"Ū":{"ha":769,"x_min":29,"x_max":740,"o":"m 29 347 l 29 1047 l 313 1047 l 313 372 q 329 274 313 303 q 386 246 346 246 q 442 274 426 246 q 457 372 457 301 l 457 1047 l 740 1047 l 740 347 q 644 77 740 172 q 386 -18 549 -18 q 126 77 224 -18 q 29 347 29 172 m 140 1125 l 140 1275 l 632 1275 l 632 1125 l 140 1125 z "},"Ŭ":{"ha":769,"x_min":29,"x_max":740,"o":"m 29 347 l 29 1047 l 313 1047 l 313 372 q 329 274 313 303 q 386 246 346 246 q 442 274 426 246 q 457 372 457 301 l 457 1047 l 740 1047 l 740 347 q 644 77 740 172 q 386 -18 549 -18 q 126 77 224 -18 q 29 347 29 172 m 140 1314 l 265 1314 q 386 1208 297 1208 q 507 1314 475 1208 l 632 1314 q 558 1146 621 1206 q 386 1086 494 1086 q 215 1146 278 1086 q 140 1314 151 1206 z "},"Ů":{"ha":769,"x_min":29,"x_max":740,"o":"m 29 347 l 29 1047 l 313 1047 l 313 372 q 329 274 313 303 q 386 246 346 246 q 442 274 426 246 q 457 372 457 301 l 457 1047 l 740 1047 l 740 347 q 644 77 740 172 q 386 -18 549 -18 q 126 77 224 -18 q 29 347 29 172 m 250 1201 q 289 1298 250 1260 q 386 1336 328 1336 q 482 1296 442 1336 q 522 1199 522 1256 q 482 1103 522 1143 q 388 1064 442 1064 q 290 1105 329 1064 q 250 1201 250 1146 m 329 1200 q 347 1159 329 1176 q 388 1142 364 1142 q 428 1159 411 1142 q 444 1199 444 1176 q 428 1241 444 1224 q 386 1258 411 1258 q 346 1242 363 1258 q 329 1200 329 1225 z "},"Ű":{"ha":769,"x_min":29,"x_max":740,"o":"m 29 347 l 29 1047 l 313 1047 l 313 372 q 329 274 313 303 q 386 246 346 246 q 442 274 426 246 q 457 372 457 301 l 457 1047 l 740 1047 l 740 347 q 644 77 740 172 q 386 -18 549 -18 q 126 77 224 -18 q 29 347 29 172 m 197 1086 l 271 1314 l 464 1314 l 338 1086 l 197 1086 m 435 1086 l 510 1314 l 703 1314 l 575 1086 l 435 1086 z "},"Ų":{"ha":769,"x_min":29,"x_max":740,"o":"m 29 347 l 29 1047 l 311 1047 l 311 372 q 328 274 311 303 q 385 246 344 246 q 442 274 426 246 q 457 372 457 301 l 457 1047 l 740 1047 l 740 347 q 683 127 740 226 q 518 0 626 28 q 451 -124 451 -62 q 532 -194 451 -194 q 599 -182 556 -194 l 583 -322 q 497 -339 542 -339 q 351 -294 408 -339 q 293 -181 293 -250 q 378 -18 293 -94 q 123 82 217 -12 q 29 347 29 176 z "},"Ŵ":{"ha":1133,"x_min":-25,"x_max":1158,"o":"m -25 1047 l 251 1047 l 303 722 q 339 379 321 619 q 397 796 364 621 l 444 1047 l 689 1047 l 736 796 q 794 379 769 619 q 831 722 813 619 l 882 1047 l 1158 1047 l 925 0 l 661 0 l 608 367 q 567 656 604 394 q 525 367 529 394 l 472 0 l 208 0 l -25 1047 m 314 1086 l 453 1314 l 681 1314 l 819 1086 l 642 1086 l 567 1206 l 492 1086 l 314 1086 z "},"Ŷ":{"ha":736,"x_min":-25,"x_max":761,"o":"m -25 1047 l 269 1047 l 321 892 q 369 724 346 818 q 417 892 396 832 l 468 1047 l 761 1047 l 518 443 l 518 0 l 235 0 l 235 443 l -25 1047 m 117 1086 l 256 1314 l 483 1314 l 622 1086 l 444 1086 l 369 1206 l 294 1086 l 117 1086 z "},"Ÿ":{"ha":736,"x_min":-25,"x_max":761,"o":"m -25 1047 l 269 1047 l 321 892 q 369 724 346 818 q 417 892 396 832 l 468 1047 l 761 1047 l 518 443 l 518 0 l 235 0 l 235 443 l -25 1047 m 124 1200 q 157 1281 124 1247 q 236 1314 190 1314 q 317 1281 283 1314 q 350 1200 350 1247 q 316 1120 350 1154 q 236 1086 282 1086 q 157 1120 190 1086 q 124 1200 124 1154 m 418 1119 q 401 1136 418 1119 q 385 1200 385 1153 q 418 1281 385 1247 q 499 1314 451 1314 q 579 1280 546 1314 q 613 1199 613 1246 q 579 1119 613 1153 q 500 1086 546 1086 q 418 1119 451 1086 z "},"Ź":{"ha":733,"x_min":-25,"x_max":731,"o":"m -25 0 l -25 28 l 219 583 q 338 801 272 706 l 38 801 l 38 1047 l 731 1047 l 731 1019 l 474 447 q 442 380 460 415 q 405 303 425 344 q 374 239 385 261 q 476 251 407 251 l 696 251 l 696 0 l -25 0 m 263 1086 l 342 1314 l 569 1314 l 425 1086 l 263 1086 z "},"Ż":{"ha":733,"x_min":-25,"x_max":731,"o":"m -25 0 l -25 28 l 219 583 q 338 801 272 706 l 38 801 l 38 1047 l 731 1047 l 731 1019 l 474 447 q 442 380 460 415 q 405 303 425 344 q 374 239 385 261 q 476 251 407 251 l 696 251 l 696 0 l -25 0 m 256 1218 q 294 1315 256 1276 q 392 1353 333 1353 q 488 1313 447 1353 q 528 1215 528 1272 q 488 1120 528 1160 q 393 1081 447 1081 q 295 1122 335 1081 q 256 1218 256 1163 z "},"Ž":{"ha":733,"x_min":-25,"x_max":731,"o":"m -25 0 l -25 28 l 219 583 q 338 801 272 706 l 38 801 l 38 1047 l 731 1047 l 731 1019 l 474 447 q 442 380 460 415 q 405 303 425 344 q 374 239 385 261 q 476 251 407 251 l 696 251 l 696 0 l -25 0 m 147 1314 l 325 1314 l 400 1194 l 475 1314 l 653 1314 l 514 1086 l 286 1086 l 147 1314 z "},"ž":{"ha":631,"x_min":0,"x_max":631,"o":"m 0 0 l 178 381 q 247 514 213 453 l 40 514 l 40 733 l 631 733 l 458 360 q 386 222 429 297 l 590 222 l 590 0 l 0 0 m 94 1050 l 293 1050 l 349 944 l 410 1050 l 572 1050 l 451 833 l 206 833 l 94 1050 z "},"ƒ":{"ha":669,"x_min":0,"x_max":669,"o":"m 0 -187 l 33 36 q 83 32 61 32 q 135 44 119 32 q 157 89 151 57 l 228 514 l 142 514 l 176 733 l 264 733 l 290 889 q 372 1092 315 1032 q 546 1151 429 1151 q 640 1140 603 1151 l 669 1133 l 640 917 q 604 922 625 922 q 555 912 569 922 q 533 868 540 901 l 510 733 l 594 733 l 557 514 l 474 514 l 397 64 q 306 -142 374 -76 q 118 -208 239 -208 q 0 -187 71 -208 z "},"Ș":{"ha":583,"x_min":21,"x_max":571,"o":"m 21 722 q 113 967 21 867 q 339 1067 206 1067 q 542 1013 439 1067 l 542 693 q 376 808 467 808 q 323 790 344 808 q 301 744 301 771 q 358 661 301 703 l 404 628 q 532 494 493 561 q 571 338 571 428 q 477 83 571 183 q 238 -18 383 -18 q 25 26 139 -18 l 25 354 q 206 240 110 240 q 265 260 242 240 q 288 308 288 279 q 238 390 288 350 l 192 426 q 60 566 100 497 q 21 722 21 635 m 164 -321 l 244 -178 l 181 -178 l 181 -28 l 368 -28 l 368 -169 l 272 -321 l 164 -321 z "},"Ț":{"ha":619,"x_min":8,"x_max":611,"o":"m 8 796 l 8 1047 l 611 1047 l 611 796 l 451 796 l 451 0 l 168 0 l 168 796 l 8 796 m 204 -321 l 285 -178 l 221 -178 l 221 -28 l 408 -28 l 408 -169 l 313 -321 l 204 -321 z "},"ˆ":{"ha":478,"x_min":0,"x_max":478,"o":"m 0 831 l 121 1047 l 367 1047 l 478 831 l 279 831 l 222 936 l 163 831 l 0 831 z "},"˚":{"ha":301,"x_min":0,"x_max":301,"o":"m 44 809 q 22 831 44 809 q 0 915 0 853 q 44 1022 0 978 q 150 1067 88 1067 q 257 1022 213 1067 q 301 914 301 976 q 257 809 301 853 q 151 765 213 765 q 44 809 89 765 m 86 915 q 104 870 86 889 q 150 851 122 851 q 194 870 176 851 q 213 915 213 889 q 194 962 213 943 q 150 981 176 981 q 104 962 122 981 q 86 915 86 943 z "},"˜":{"ha":535,"x_min":0,"x_max":535,"o":"m 0 836 q 42 990 0 936 q 160 1043 83 1043 q 258 1021 204 1043 l 306 1001 q 350 990 336 990 q 394 1047 390 990 l 535 1047 l 535 1025 q 490 890 535 942 q 369 839 444 839 q 251 871 322 839 q 185 892 208 892 q 143 836 147 892 l 0 836 z "},"ẞ":{"ha":869,"x_min":33,"x_max":860,"o":"m 33 0 l 33 676 q 48 838 33 774 q 101 952 63 903 q 210 1024 139 1001 q 389 1047 281 1047 l 860 1047 l 664 615 q 817 476 775 549 q 858 314 858 403 q 765 70 858 158 q 526 -18 672 -18 q 357 31 460 -18 l 357 311 q 483 239 418 239 q 563 273 536 239 q 589 344 589 307 q 537 449 589 399 q 375 513 485 499 l 506 810 l 407 810 q 332 782 349 810 q 315 690 315 754 l 315 0 l 33 0 z "}," ":{"ha":676,"x_min":0,"x_max":0,"o":""}," ":{"ha":1353,"x_min":0,"x_max":0,"o":""}," ":{"ha":676,"x_min":0,"x_max":0,"o":""}," ":{"ha":1353,"x_min":0,"x_max":0,"o":""}," ":{"ha":450,"x_min":0,"x_max":0,"o":""}," ":{"ha":338,"x_min":0,"x_max":0,"o":""}," ":{"ha":225,"x_min":0,"x_max":0,"o":""}," ":{"ha":225,"x_min":0,"x_max":0,"o":""}," ":{"ha":168,"x_min":0,"x_max":0,"o":""}," ":{"ha":269,"x_min":0,"x_max":0,"o":""}," ":{"ha":75,"x_min":0,"x_max":0,"o":""},"‐":{"ha":374,"x_min":17,"x_max":357,"o":"m 17 419 l 17 628 l 357 628 l 357 419 l 17 419 z "},"‑":{"ha":374,"x_min":17,"x_max":357,"o":"m 17 419 l 17 628 l 357 628 l 357 419 l 17 419 z "},"‒":{"ha":374,"x_min":17,"x_max":357,"o":"m 17 419 l 17 628 l 357 628 l 357 419 l 17 419 z "},"–":{"ha":651,"x_min":0,"x_max":651,"o":"m 0 272 l 0 482 l 651 482 l 651 272 l 0 272 z "},"—":{"ha":1021,"x_min":0,"x_max":1021,"o":"m 0 272 l 0 482 l 1021 482 l 1021 272 l 0 272 z "},"―":{"ha":1021,"x_min":0,"x_max":1021,"o":"m 0 272 l 0 482 l 1021 482 l 1021 272 l 0 272 z "},"‘":{"ha":407,"x_min":0,"x_max":407,"o":"m 0 543 l 183 1047 l 407 1047 l 278 543 l 0 543 z "},"’":{"ha":418,"x_min":10,"x_max":415,"o":"m 10 543 l 138 1047 l 415 1047 l 232 543 l 10 543 z "},"‚":{"ha":406,"x_min":0,"x_max":406,"o":"m 0 -253 l 128 250 l 406 250 l 222 -253 l 0 -253 z "},"“":{"ha":778,"x_min":0,"x_max":778,"o":"m 0 543 l 183 1047 l 407 1047 l 278 543 l 0 543 m 372 543 l 556 1047 l 778 1047 l 650 543 l 372 543 z "},"”":{"ha":778,"x_min":0,"x_max":778,"o":"m 0 543 l 129 1047 l 407 1047 l 224 543 l 0 543 m 372 543 l 500 1047 l 778 1047 l 596 543 l 372 543 z "},"„":{"ha":778,"x_min":0,"x_max":778,"o":"m 0 -253 l 128 250 l 406 250 l 222 -253 l 0 -253 m 371 -253 l 499 250 l 778 250 l 594 -253 l 371 -253 z "},"†":{"ha":754,"x_min":0,"x_max":754,"o":"m 0 669 l 0 889 l 251 889 l 251 1146 l 503 1146 l 503 889 l 754 889 l 754 669 l 503 669 l 503 -326 l 251 -326 l 251 669 l 0 669 z "},"‡":{"ha":754,"x_min":0,"x_max":754,"o":"m 0 143 l 0 358 l 251 358 l 251 671 l 0 671 l 0 888 l 251 888 l 251 1146 l 503 1146 l 503 888 l 754 888 l 754 671 l 503 671 l 503 358 l 754 358 l 754 143 l 503 143 l 503 -326 l 251 -326 l 251 143 l 0 143 z "},"•":{"ha":431,"x_min":0,"x_max":431,"o":"m 63 381 q 31 413 63 381 q 0 533 0 444 q 63 685 0 622 q 215 749 125 749 q 368 685 306 749 q 431 533 431 622 q 368 381 431 444 q 215 318 306 318 q 63 381 125 318 z "},"…":{"ha":1108,"x_min":21,"x_max":1088,"o":"m 67 28 q 44 52 67 28 q 21 140 21 75 q 67 252 21 206 q 179 299 114 299 q 291 252 244 299 q 338 140 338 206 q 291 28 338 75 q 179 -18 244 -18 q 67 28 114 -18 m 442 28 q 419 52 442 28 q 396 140 396 75 q 442 252 396 206 q 554 299 489 299 q 666 252 619 299 q 713 140 713 206 q 666 28 713 75 q 554 -18 619 -18 q 442 28 489 -18 m 817 28 q 794 52 817 28 q 771 140 771 75 q 817 252 771 206 q 929 299 864 299 q 1041 252 994 299 q 1088 140 1088 206 q 1041 28 1088 75 q 929 -18 994 -18 q 817 28 864 -18 z "}," ":{"ha":269,"x_min":0,"x_max":0,"o":""},"‰":{"ha":1503,"x_min":0,"x_max":1503,"o":"m 63 622 q 31 657 63 622 q 0 807 0 693 q 63 992 0 921 q 228 1064 125 1064 q 393 992 331 1064 q 456 807 456 921 q 393 622 456 693 q 228 550 331 550 q 63 622 125 550 m 74 42 l 814 1090 l 926 1011 l 182 -36 l 74 42 m 183 807 q 228 704 183 704 q 272 807 272 704 q 228 908 272 908 q 183 807 183 908 m 607 55 q 576 91 607 55 q 544 240 544 126 q 607 426 544 354 q 772 497 669 497 q 938 426 875 497 q 1000 240 1000 354 q 938 55 1000 126 q 772 -17 875 -17 q 607 55 669 -17 m 728 240 q 772 138 728 138 q 817 240 817 138 q 772 342 817 342 q 728 240 728 342 m 1110 55 q 1078 91 1110 55 q 1047 240 1047 126 q 1110 426 1047 354 q 1275 497 1172 497 q 1440 426 1378 497 q 1503 240 1503 354 q 1440 55 1503 126 q 1275 -17 1378 -17 q 1110 55 1172 -17 m 1231 240 q 1275 138 1231 138 q 1319 240 1319 138 q 1275 342 1319 342 q 1231 240 1231 342 z "},"‹":{"ha":361,"x_min":0,"x_max":361,"o":"m 0 376 l 239 693 l 361 601 l 182 376 l 361 153 l 239 61 l 0 376 z "},"›":{"ha":361,"x_min":0,"x_max":361,"o":"m 0 153 l 179 376 l 0 601 l 122 693 l 361 376 l 122 61 l 0 153 z "},"⁄":{"ha":721,"x_min":0,"x_max":721,"o":"m 0 -7 l 604 1117 l 721 1056 l 113 -69 l 0 -7 z "}," ":{"ha":338,"x_min":0,"x_max":0,"o":""},"₪":{"ha":1222,"x_min":0,"x_max":1222,"o":"m 0 0 l 0 1047 l 544 1047 q 799 953 706 1047 q 892 682 892 858 l 892 360 l 661 360 l 661 657 q 626 752 661 721 q 544 783 592 783 l 239 783 l 239 0 l 0 0 m 331 0 l 331 692 l 569 692 l 569 264 l 872 264 q 951 295 918 264 q 983 390 983 326 l 983 1047 l 1222 1047 l 1222 365 q 1128 94 1222 189 q 872 0 1033 0 l 331 0 z "},"€":{"ha":736,"x_min":21,"x_max":719,"o":"m 21 368 l 21 481 l 68 481 q 67 524 67 496 l 67 564 l 21 564 l 21 676 l 81 676 q 228 962 117 857 q 496 1067 340 1067 q 614 1052 540 1067 q 719 1018 688 1038 l 651 767 q 536 804 603 804 q 376 676 419 804 l 628 676 l 599 564 l 356 564 l 356 524 q 357 481 356 496 l 576 481 l 547 368 l 379 368 q 536 254 422 254 q 651 292 604 254 l 719 31 q 614 -3 688 11 q 496 -18 540 -18 q 228 85 340 -18 q 81 368 117 189 l 21 368 z "},"™":{"ha":1033,"x_min":0,"x_max":1033,"o":"m 0 896 l 0 1047 l 364 1047 l 364 896 l 269 896 l 269 450 l 94 450 l 94 896 l 0 896 m 381 450 l 451 1047 l 653 1047 l 707 790 l 761 1047 l 963 1047 l 1033 450 l 850 450 l 829 757 l 778 450 l 636 450 l 585 757 l 564 450 l 381 450 z "},"◼":{"ha":736,"x_min":0,"x_max":736,"o":"m 0 0 l 0 736 l 736 736 l 736 0 l 0 0 z "}}}
